<svg version="1.1" xmlns="http://www.w3.org/2000/svg" viewBox="0 0 574.0858154296875 408.3363073135429" width="574.0858154296875" height="408.3363073135429">
  <!-- svg-source:excalidraw -->
  
  <defs>
    <style>
      @font-face {
        font-family: "Virgil";
        src: url("https://excalidraw.com/Virgil.woff2");
      }
      @font-face {
        font-family: "Cascadia";
        src: url("https://excalidraw.com/Cascadia.woff2");
      }
    </style>
  </defs>
  <rect x="0" y="0" width="574.0858154296875" height="408.3363073135429" fill="#ffffff"></rect><g stroke-linecap="round" transform="translate(10 10) rotate(0 277.04290771484375 194.16815365677144)"><path d="M-0.22 -0.28 C198.01 1.4, 397.79 3.19, 554.59 -1.58 M0.14 0.44 C173.19 3.42, 347.68 3.36, 554.68 0.55 M553.12 -2.11 C551.79 82.97, 552.89 166.47, 552.49 388.85 M555.08 -0.77 C549.3 105.37, 548.87 210.82, 553.61 388.9 M555.28 388.44 C395.39 387.07, 240.81 387.75, -1.34 388.12 M554.46 388.69 C431.31 384.67, 307.23 384.3, 0.46 387.7 M-1.37 389.48 C-4.01 262.02, -3.03 133.84, -1.72 -0.39 M-0.91 388.28 C2.97 280.97, 2.91 173.81, 0.7 0" stroke="#3e5166" stroke-width="1" fill="none"></path></g><g stroke-linecap="round" transform="translate(235.99555448614632 153.12346501437025) rotate(0 32.07533225747762 33.43849713627344)"><path d="M-3.19 -3.76 C19.45 3.74, 33.81 -1.62, 64.72 -2.51 M-1.38 -0.05 C15.32 -2.28, 29.44 -1.74, 65.61 1.98 M61.14 -3.78 C66.23 23.25, 68 50.42, 64.24 70.75 M62.3 -0.39 C63.13 17.17, 63.6 32, 64.4 66.55 M66.13 64.05 C40.33 65.06, 23 68.79, 0.21 65.4 M65.28 64.95 C41.18 68.78, 16.44 67.57, 1.52 68.36 M3.97 67.6 C0.92 50.18, 3.15 38.05, -0.51 -1.39 M1.72 67.39 C1.4 41.1, 1.93 16.15, 0.4 -0.83" stroke="#d5001c" stroke-width="1" fill="none"></path></g><g stroke-linecap="round"><g transform="translate(236.41218041939172 152.24733384951196) rotate(0 14.608917688174007 -10.941239930922649)"><path d="M3.8 0.57 C11.63 -11.31, 25.85 -16.15, 29.35 -19.44 M-0.76 -1.83 C14.18 -9.58, 25.07 -17.71, 29.98 -22.45" stroke="#d5001c" stroke-width="1" fill="none"></path></g></g><g stroke-linecap="round"><g transform="translate(298.04684541298093 152.96475436668584) rotate(0 11.779149031790894 -11.130134053843022)"><path d="M0.04 0.37 C7.6 -11.49, 15.96 -16.25, 22.45 -17.99 M0.14 -1.28 C7.22 -6.32, 18.63 -14.58, 23.52 -22.63" stroke="#d5001c" stroke-width="1" fill="none"></path></g></g><g stroke-linecap="round"><g transform="translate(300.3487752454042 216.22916683401445) rotate(0 13.178387195777205 -12.373679132412462)"><path d="M2.19 2.89 C12.57 -13.02, 18.8 -20.81, 22.62 -24.25 M-0.5 -0.67 C8.44 -6.86, 12.71 -14.8, 26.86 -27.64" stroke="#d5001c" stroke-width="1" fill="none"></path></g></g><g stroke-linecap="round"><g transform="translate(324.4813483768738 192.4041884209637) rotate(0 -0.5948407292299152 -30.092267024086624)"><path d="M0.54 -2.94 C1.49 -8.45, -1.42 -23.53, -0.45 -60.29 M-0.49 0.48 C-2.44 -18.5, -0.32 -40.93, -1.9 -60.67" stroke="#d5001c" stroke-width="1" fill="none"></path></g></g><g stroke-linecap="round"><g transform="translate(267.00728643236465 131.75539907354903) rotate(0 29.576282044637097 0.23749020951976263)"><path d="M2.48 0.2 C19.06 3.64, 34.62 1.51, 51.78 1.61 M1.86 -1.68 C20.26 1.31, 36.66 1.96, 57.29 1.58" stroke="#d5001c" stroke-width="1" fill="none"></path></g></g><g transform="translate(24.8644362919257 18.697251307539773) rotate(0 32.74243641742586 15.34801707066839)"><text x="0" y="21.69603414133676" font-family="Virgil, Segoe UI Emoji" font-size="24.556827313069405px" fill="#d5001c" text-anchor="start" style="white-space: pre;" direction="ltr">Scene</text></g><g stroke-linecap="round"><g transform="translate(522.3197947060537 361.0137520450669) rotate(0 0.7154485680386244 -18.77795442162727)"><path d="M-1.14 -2.2 C-1.44 -8.91, -0.12 -33.79, 0.83 -40.34 M3.43 2.78 C2.42 -3.41, -2.13 -29.6, -2 -36.53" stroke="#d5001c" stroke-width="1" fill="none"></path></g><g transform="translate(522.3197947060537 361.0137520450669) rotate(0 0.7154485680386244 -18.77795442162727)"><path d="M3.5 -19.67 C3.72 -21.67, -1.3 -34.83, -0.04 -36.57 M6.84 -17.45 C2.61 -23.05, 2.88 -29.16, -1.71 -36.4" stroke="#d5001c" stroke-width="1" fill="none"></path></g><g transform="translate(522.3197947060537 361.0137520450669) rotate(0 0.7154485680386244 -18.77795442162727)"><path d="M-10.37 -18.43 C-4.69 -20.8, -4.23 -34.45, -0.04 -36.57 M-7.03 -16.21 C-7.33 -22.32, -3.12 -28.78, -1.71 -36.4" stroke="#d5001c" stroke-width="1" fill="none"></path></g></g><g stroke-linecap="round"><g transform="translate(522.2040972222187 361.348960614557) rotate(0 -16.637050614990642 9.362039074073039)"><path d="M0.22 -2.5 C-4.69 0.83, -26.06 17.54, -31.05 21.22 M-3.11 2.32 C-8.27 4.67, -28.84 13.43, -33.49 16.77" stroke="#d5001c" stroke-width="1" fill="none"></path></g><g transform="translate(522.2040972222187 361.348960614557) rotate(0 -16.637050614990642 9.362039074073039)"><path d="M-24.61 2.52 C-22.8 7.61, -27.87 8.13, -34.23 15.4 M-21.05 3.83 C-25.13 8.27, -26.58 12.4, -33.08 17.47" stroke="#d5001c" stroke-width="1" fill="none"></path></g><g transform="translate(522.2040972222187 361.348960614557) rotate(0 -16.637050614990642 9.362039074073039)"><path d="M-18.61 13.56 C-18.35 15.99, -24.88 13.84, -34.23 15.4 M-15.05 14.86 C-20.55 16.39, -23.65 17.51, -33.08 17.47" stroke="#d5001c" stroke-width="1" fill="none"></path></g></g><g stroke-linecap="round"><g transform="translate(521.831009914078 361.3019395047886) rotate(0 14.512016891065116 10.57692048677643)"><path d="M1.11 -2.71 C6.4 0.91, 25.94 19.49, 30.76 23.86 M-1.74 2 C3.45 4.63, 24.5 17.05, 29.62 19.86" stroke="#d5001c" stroke-width="1" fill="none"></path></g><g transform="translate(521.831009914078 361.3019395047886) rotate(0 14.512016891065116 10.57692048677643)"><path d="M8.27 19.4 C18.94 19.13, 23.23 20.94, 28.49 17.65 M13.06 17.55 C15.75 16.48, 21.17 19.46, 28.77 19.17" stroke="#d5001c" stroke-width="1" fill="none"></path></g><g transform="translate(521.831009914078 361.3019395047886) rotate(0 14.512016891065116 10.57692048677643)"><path d="M14.41 8.64 C23.62 11.28, 26.28 15.93, 28.49 17.65 M19.2 6.8 C20.38 8.13, 24.41 13.56, 28.77 19.17" stroke="#d5001c" stroke-width="1" fill="none"></path></g></g><g transform="translate(529.5042173578944 309.88136830548046) rotate(0 4.135439354840315 9.046273588713234)"><text x="0" y="13.092547177426429" font-family="Virgil, Segoe UI Emoji" font-size="14.474037741941125px" fill="#d5001c" text-anchor="start" style="white-space: pre;" direction="ltr">z</text></g><g transform="translate(489.9430191199491 346.93057866566323) rotate(0 4.135439354840315 9.046273588713234)"><text x="0" y="13.092547177426429" font-family="Virgil, Segoe UI Emoji" font-size="14.474037741941125px" fill="#d5001c" text-anchor="start" style="white-space: pre;" direction="ltr">x</text></g><g transform="translate(545.752677625747 349.5090127354508) rotate(0 3.3600444758077685 9.046273588713234)"><text x="0" y="13.092547177426429" font-family="Virgil, Segoe UI Emoji" font-size="14.474037741941142px" fill="#d5001c" text-anchor="start" style="white-space: pre;" direction="ltr">y</text></g><g stroke-linecap="round" transform="translate(203.30749228284347 95.01127347540853) rotate(0 79.10018021466033 79.49271749207611)"><path d="M75.39 0.91 C86.09 -0.98, 100.2 1.53, 110.81 5.97 C121.42 10.41, 131.99 18.92, 139.05 27.54 C146.1 36.17, 150.1 47.07, 153.15 57.73 C156.2 68.39, 158.77 80.14, 157.34 91.49 C155.9 102.84, 150.86 116.23, 144.54 125.84 C138.22 135.45, 129.04 143.38, 119.43 149.16 C109.82 154.94, 98.46 159.61, 86.89 160.51 C75.31 161.41, 60.85 158.63, 49.99 154.54 C39.13 150.45, 29.61 144.48, 21.73 135.96 C13.84 127.44, 6.16 114.27, 2.69 103.43 C-0.79 92.59, -0.35 81.71, 0.87 70.91 C2.1 60.11, 4.44 48.14, 10.01 38.64 C15.58 29.13, 24.66 20.02, 34.29 13.89 C43.92 7.76, 56.01 3.67, 67.79 1.85 C79.57 0.02, 94.93 -0.23, 104.97 2.93 C115 6.09, 128.27 19.17, 127.98 20.79" stroke="#d5001c" stroke-width="1.5" fill="none" stroke-dasharray="1.5 7"></path></g><g transform="translate(162.5016013891138 73.02119218123812) rotate(0 31.03710118735159 8.526676150371316)"><text x="0" y="12.053352300742638" font-family="Virgil, Segoe UI Emoji" font-size="13.642681840594111px" fill="#3e5166" text-anchor="start" style="white-space: pre;" direction="ltr">Geometry</text></g><g transform="translate(267.98879987765747 95.50640773379894) rotate(0 -35.409161755931805 13.192179402678619)" stroke="none" fill="#3e5166"><path d="M -65.40,-2.19 Q -65.40,-2.19 -64.17,-2.16 -62.94,-2.12 -61.64,-2.09 -60.34,-2.05 -59.14,-1.97 -57.93,-1.89 -56.82,-1.79 -55.71,-1.68 -54.43,-1.52 -53.14,-1.35 -51.72,-1.19 -50.31,-1.02 -48.59,-0.70 -46.88,-0.38 -45.12,-0.01 -43.37,0.35 -41.01,1.11 -38.64,1.86 -36.18,2.74 -33.71,3.62 -31.66,4.41 -29.60,5.21 -27.93,5.83 -26.26,6.45 -24.84,7.05 -23.43,7.65 -22.30,8.15 -21.18,8.65 -19.99,9.37 -18.81,10.09 -17.66,11.02 -16.52,11.95 -15.36,13.02 -14.21,14.09 -13.13,15.13 -12.05,16.18 -11.18,17.02 -10.31,17.87 -8.90,19.28 -7.48,20.69 -6.46,21.65 -5.44,22.61 -4.61,23.32 -3.77,24.03 -3.65,24.11 -3.53,24.20 -3.30,24.47 -3.08,24.75 -2.93,25.07 -2.79,25.39 -2.72,25.73 -2.65,26.08 -2.67,26.43 -2.68,26.78 -2.79,27.12 -2.89,27.46 -3.07,27.77 -3.24,28.07 -3.49,28.32 -3.74,28.57 -4.04,28.76 -4.34,28.95 -4.67,29.06 -5.01,29.17 -5.36,29.19 -5.71,29.22 -6.06,29.16 -6.41,29.10 -6.73,28.96 -7.06,28.81 -7.34,28.60 -7.62,28.39 -8.05,27.16 -8.48,25.93 -8.71,24.53 -8.93,23.13 -9.04,21.94 -9.14,20.76 -9.22,19.65 -9.30,18.54 -9.34,17.39 -9.37,16.23 -9.47,14.85 -9.56,13.47 -9.03,12.01 -8.51,10.55 -9.06,11.45 -9.62,12.36 -9.59,11.98 -9.55,11.61 -9.43,11.25 -9.31,10.90 -9.10,10.58 -8.90,10.26 -8.62,10.01 -8.35,9.75 -8.02,9.56 -7.69,9.38 -7.33,9.28 -6.97,9.17 -6.59,9.16 -6.22,9.15 -5.85,9.23 -5.48,9.31 -5.14,9.47 -4.80,9.64 -4.51,9.88 -4.22,10.12 -4.00,10.42 -3.78,10.73 -3.63,11.08 -3.49,11.42 -3.43,11.80 -3.37,12.17 -3.06,13.34 -2.75,14.50 -2.53,16.14 -2.32,17.78 -2.19,19.35 -2.06,20.91 -2.03,22.14 -2.00,23.37 -2.00,23.45 -2.01,23.54 -2.10,23.93 -2.20,24.32 -2.38,24.68 -2.57,25.04 -2.83,25.34 -3.10,25.65 -3.43,25.88 -3.76,26.11 -4.14,26.25 -4.51,26.40 -4.91,26.45 -5.31,26.50 -5.72,26.45 -6.12,26.40 -6.49,26.26 -6.87,26.12 -7.20,25.89 -7.54,25.67 -7.81,25.36 -8.08,25.06 -8.26,24.71 -8.45,24.35 -8.55,23.96 -8.65,23.57 -8.65,23.17 -8.65,22.76 -7.66,24.50 -6.67,26.24 -8.71,25.98 -10.75,25.71 -12.50,25.53 -14.25,25.35 -15.83,25.26 -17.40,25.18 -18.83,25.19 -20.25,25.21 -20.70,25.30 -21.15,25.39 -21.60,25.34 -22.06,25.28 -22.47,25.08 -22.88,24.89 -23.21,24.57 -23.54,24.25 -23.75,23.84 -23.96,23.43 -24.03,22.98 -24.09,22.53 -24.01,22.08 -23.93,21.63 -23.71,21.23 -23.50,20.83 -23.16,20.52 -22.82,20.21 -22.41,20.02 -21.99,19.83 -21.53,19.79 -21.08,19.75 -20.63,19.85 -20.19,19.95 -19.80,20.19 -19.41,20.43 -19.12,20.79 -18.83,21.14 -18.66,21.57 -18.50,21.99 -18.48,22.45 -18.46,22.91 -18.59,23.35 -18.72,23.79 -18.98,24.16 -19.24,24.54 -19.61,24.81 -19.97,25.08 -20.41,25.22 -20.85,25.36 -21.30,25.36 -21.76,25.35 -22.19,25.20 -22.62,25.05 -22.98,24.77 -23.34,24.48 -23.60,24.10 -23.85,23.72 -23.96,23.28 -24.08,22.84 -24.05,22.38 -24.02,21.92 -23.85,21.50 -23.67,21.08 -23.37,20.73 -23.07,20.39 -22.67,20.16 -22.28,19.93 -22.28,19.93 -22.28,19.93 -19.81,19.75 -17.34,19.58 -15.73,19.53 -14.12,19.48 -12.22,19.38 -10.31,19.28 -8.73,19.32 -7.14,19.36 -5.89,19.61 -4.63,19.85 -3.32,21.70 -2.01,23.54 -2.10,23.93 -2.20,24.32 -2.38,24.68 -2.57,25.04 -2.83,25.34 -3.10,25.64 -3.43,25.88 -3.76,26.11 -4.14,26.25 -4.51,26.40 -4.91,26.45 -5.31,26.50 -5.71,26.45 -6.12,26.40 -6.49,26.26 -6.87,26.12 -7.20,25.89 -7.54,25.67 -7.81,25.37 -8.08,25.06 -8.26,24.71 -8.45,24.35 -8.55,23.96 -8.65,23.57 -8.65,23.17 -8.65,22.76 -8.62,22.04 -8.58,21.31 -8.66,19.96 -8.74,18.61 -8.92,17.06 -9.10,15.50 -9.36,13.93 -9.62,12.36 -9.59,11.98 -9.55,11.61 -9.43,11.25 -9.31,10.90 -9.10,10.58 -8.90,10.26 -8.62,10.01 -8.35,9.75 -8.02,9.56 -7.69,9.38 -7.33,9.28 -6.97,9.17 -6.59,9.16 -6.22,9.15 -5.85,9.23 -5.48,9.31 -5.14,9.47 -4.80,9.64 -4.51,9.88 -4.22,10.12 -4.00,10.42 -3.78,10.73 -3.63,11.08 -3.49,11.42 -3.43,11.80 -3.37,12.17 -3.40,13.30 -3.43,14.43 -3.40,16.26 -3.36,18.10 -3.29,19.16 -3.21,20.22 -3.10,21.32 -2.99,22.42 -2.82,24.41 -2.64,26.41 -3.08,25.30 -3.53,24.20 -3.30,24.47 -3.08,24.75 -2.93,25.07 -2.79,25.39 -2.72,25.73 -2.65,26.08 -2.67,26.43 -2.68,26.78 -2.79,27.12 -2.89,27.46 -3.07,27.77 -3.24,28.07 -3.49,28.32 -3.74,28.57 -4.04,28.76 -4.34,28.95 -4.67,29.06 -5.01,29.17 -5.36,29.19 -5.71,29.22 -6.06,29.16 -6.41,29.10 -6.73,28.96 -7.06,28.81 -7.34,28.60 -7.62,28.39 -7.72,28.28 -7.83,28.18 -8.60,27.31 -9.36,26.43 -10.34,25.27 -11.32,24.10 -12.54,22.62 -13.76,21.15 -14.51,20.30 -15.25,19.44 -16.28,18.42 -17.31,17.39 -18.38,16.37 -19.45,15.35 -20.34,14.51 -21.24,13.68 -22.16,12.98 -23.07,12.28 -24.07,11.68 -25.07,11.07 -26.30,10.41 -27.54,9.74 -29.13,9.09 -30.73,8.44 -32.78,7.80 -34.83,7.17 -37.26,6.50 -39.69,5.84 -41.94,5.38 -44.18,4.92 -45.91,4.67 -47.65,4.42 -49.25,4.21 -50.86,4.00 -52.36,3.84 -53.85,3.69 -56.14,3.33 -58.43,2.96 -59.51,2.81 -60.59,2.65 -61.92,2.55 -63.24,2.45 -64.47,2.32 -65.69,2.19 -65.95,2.14 -66.21,2.09 -66.46,1.98 -66.70,1.87 -66.90,1.71 -67.11,1.54 -67.27,1.33 -67.44,1.12 -67.54,0.88 -67.65,0.64 -67.70,0.38 -67.74,0.11 -67.73,-0.14 -67.71,-0.41 -67.63,-0.66 -67.55,-0.91 -67.41,-1.14 -67.27,-1.36 -67.08,-1.55 -66.89,-1.74 -66.66,-1.87 -66.44,-2.01 -66.18,-2.09 -65.93,-2.16 -65.66,-2.18 -65.40,-2.19 -65.40,-2.19 L -65.40,-2.19 Z"></path></g><g transform="translate(247.60717878471525 161.09399277479065) rotate(0 17.00694848265436 23.364320128540157)" stroke="none" fill="#d5001c"><path d="M -2.18,-0.88 Q -2.18,-0.88 -3.71,1.01 -5.25,2.91 -6.42,4.43 -7.59,5.94 -8.32,7.04 -9.04,8.14 -9.63,9.20 -10.22,10.26 -10.31,10.48 -10.41,10.69 -10.59,10.91 -10.77,11.14 -11.00,11.31 -11.23,11.48 -11.50,11.59 -11.76,11.70 -12.04,11.74 -12.33,11.79 -12.61,11.76 -12.90,11.74 -13.17,11.64 -13.44,11.55 -13.68,11.40 -13.92,11.24 -14.12,11.03 -14.32,10.82 -14.46,10.58 -14.60,10.33 -14.68,10.05 -14.75,9.77 -14.76,9.49 -14.77,9.20 -14.71,8.92 -14.65,8.64 -14.53,8.38 -14.41,8.13 -13.58,7.39 -12.75,6.65 -10.95,5.61 -9.14,4.57 -6.41,2.65 -3.68,0.74 -2.04,-0.45 -0.40,-1.66 0.38,-2.40 1.17,-3.15 2.61,-3.78 4.05,-4.41 5.08,-3.03 6.10,-1.64 5.61,0.29 5.11,2.24 4.75,3.31 4.40,4.37 3.87,5.59 3.34,6.80 2.59,8.13 1.84,9.46 0.94,10.86 0.05,12.26 -0.66,13.49 -1.38,14.72 -1.81,15.84 -2.24,16.96 -2.43,17.22 -2.62,17.49 -2.86,17.70 -3.10,17.91 -3.39,18.06 -3.68,18.21 -3.99,18.28 -4.31,18.36 -4.63,18.35 -4.96,18.35 -5.27,18.27 -5.58,18.19 -5.87,18.04 -6.15,17.89 -6.39,17.67 -6.63,17.45 -6.82,17.19 -7.00,16.92 -7.11,16.61 -7.22,16.31 -7.26,15.99 -7.29,15.67 -7.25,15.35 -7.21,15.03 -7.09,14.72 -6.98,14.42 -6.19,13.63 -5.41,12.84 -4.24,11.95 -3.07,11.07 -1.06,9.56 0.93,8.05 3.78,5.58 6.62,3.10 9.48,0.63 12.34,-1.83 14.25,-3.37 16.16,-4.90 17.24,-5.88 18.33,-6.85 19.02,-7.56 19.71,-8.27 19.93,-8.41 20.14,-8.54 20.39,-8.62 20.63,-8.70 20.88,-8.72 21.14,-8.74 21.39,-8.69 21.64,-8.65 21.88,-8.55 22.11,-8.45 22.31,-8.29 22.52,-8.14 22.68,-7.94 22.84,-7.74 22.95,-7.51 23.05,-7.28 23.10,-7.02 23.15,-6.77 23.14,-6.52 23.13,-6.26 23.05,-6.02 22.98,-5.77 22.85,-5.55 22.72,-5.33 22.54,-5.15 22.36,-4.97 21.71,-3.26 21.05,-1.55 19.19,1.15 17.34,3.87 14.88,7.17 12.43,10.47 9.89,13.83 7.35,17.19 5.29,20.06 3.24,22.93 1.90,24.89 0.56,26.85 -0.03,28.09 -0.64,29.34 -0.90,30.17 -1.17,31.00 -1.31,31.19 -1.45,31.38 -1.62,31.54 -1.80,31.69 -2.01,31.79 -2.22,31.90 -2.44,31.95 -2.67,32.00 -2.91,32.00 -3.14,32.00 -3.37,31.94 -3.59,31.88 -3.80,31.77 -4.00,31.66 -4.18,31.50 -4.35,31.34 -4.48,31.15 -4.61,30.95 -4.69,30.73 -4.77,30.51 -4.79,30.28 -4.82,30.05 -4.79,29.81 -4.75,29.58 -4.67,29.37 -4.58,29.15 -2.43,27.59 -0.28,26.03 2.32,24.19 4.94,22.36 8.49,19.70 12.04,17.04 15.58,14.05 19.13,11.07 21.62,8.79 24.11,6.50 25.53,5.09 26.95,3.68 27.78,2.57 28.61,1.46 28.72,1.32 28.82,1.18 29.00,1.04 29.18,0.89 29.39,0.79 29.60,0.69 29.82,0.65 30.05,0.60 30.28,0.61 30.51,0.62 30.74,0.68 30.96,0.75 31.16,0.86 31.36,0.98 31.53,1.14 31.70,1.30 31.82,1.50 31.94,1.69 32.02,1.91 32.09,2.13 32.11,2.37 32.13,2.60 32.09,2.83 32.05,3.05 31.96,3.27 31.87,3.48 31.73,3.67 31.59,3.85 31.02,5.14 30.45,6.42 28.77,8.80 27.09,11.18 24.55,14.59 22.02,18.00 19.45,21.40 16.89,24.79 15.04,27.33 13.19,29.87 12.06,31.47 10.93,33.07 10.41,34.02 9.89,34.97 9.68,35.43 9.48,35.89 9.32,36.06 9.17,36.24 8.98,36.37 8.79,36.50 8.57,36.59 8.36,36.67 8.13,36.70 7.90,36.73 7.67,36.71 7.44,36.68 7.22,36.60 7.00,36.52 6.81,36.39 6.61,36.26 6.46,36.09 6.30,35.91 6.19,35.71 6.08,35.50 6.03,35.28 5.97,35.05 5.97,34.82 5.96,34.59 6.02,34.36 6.07,34.14 6.18,33.93 6.28,33.72 6.97,32.83 7.66,31.93 9.86,29.70 12.06,27.48 15.60,23.55 19.15,19.61 22.80,15.38 26.45,11.15 28.94,8.23 31.43,5.31 32.65,3.83 33.87,2.35 34.68,1.26 35.50,0.18 35.37,0.25 35.24,0.32 35.42,0.17 35.59,0.03 35.79,-0.07 36.00,-0.17 36.22,-0.22 36.45,-0.27 36.68,-0.27 36.91,-0.26 37.13,-0.20 37.35,-0.14 37.55,-0.03 37.75,0.07 37.92,0.22 38.09,0.38 38.21,0.57 38.34,0.76 38.42,0.97 38.50,1.19 38.52,1.42 38.54,1.65 38.51,1.87 38.48,2.10 38.39,2.31 38.31,2.53 38.17,2.71 38.04,2.90 37.13,4.38 36.22,5.86 33.92,9.18 31.63,12.49 28.59,16.46 25.55,20.43 22.41,24.39 19.26,28.35 17.02,31.13 14.78,33.90 13.60,35.46 12.42,37.02 11.94,38.00 11.47,38.97 11.32,39.12 11.17,39.28 10.98,39.39 10.80,39.50 10.60,39.57 10.39,39.64 10.18,39.66 9.96,39.67 9.75,39.64 9.54,39.60 9.34,39.52 9.14,39.43 8.97,39.30 8.80,39.17 8.66,39.00 8.53,38.84 8.44,38.64 8.35,38.45 8.30,38.24 8.26,38.02 8.27,37.81 8.28,37.59 8.34,37.39 8.40,37.18 8.51,37.00 8.62,36.81 9.58,36.09 10.54,35.37 12.36,34.05 14.18,32.73 17.02,30.40 19.86,28.06 23.60,24.82 27.34,21.58 30.25,19.00 33.15,16.41 34.78,14.97 36.40,13.53 37.47,12.70 38.54,11.87 38.23,11.98 37.92,12.10 38.09,11.98 38.26,11.86 38.46,11.78 38.65,11.70 38.86,11.68 39.07,11.65 39.27,11.67 39.48,11.69 39.68,11.77 39.88,11.84 40.05,11.95 40.22,12.07 40.36,12.23 40.50,12.38 40.60,12.56 40.70,12.75 40.76,12.95 40.81,13.15 40.81,13.36 40.81,13.57 40.77,13.78 40.72,13.98 40.63,14.17 40.53,14.35 40.39,14.51 40.26,14.67 39.53,16.07 38.81,17.48 36.52,20.94 34.24,24.40 31.41,28.52 28.59,32.64 26.33,35.91 24.07,39.18 22.72,41.11 21.37,43.04 20.89,44.00 20.40,44.95 20.26,45.28 20.12,45.60 19.98,45.77 19.84,45.93 19.66,46.06 19.49,46.18 19.29,46.26 19.09,46.34 18.88,46.37 18.66,46.40 18.45,46.38 18.23,46.36 18.03,46.29 17.83,46.22 17.65,46.10 17.47,45.98 17.32,45.82 17.18,45.66 17.07,45.47 16.97,45.29 16.91,45.08 16.86,44.87 16.86,44.65 16.85,44.44 16.90,44.23 16.95,44.02 17.04,43.83 17.14,43.63 18.36,42.47 19.58,41.30 22.13,39.09 24.68,36.89 28.04,33.95 31.40,31.01 34.28,28.40 37.16,25.80 38.98,24.24 40.81,22.69 41.60,21.86 42.39,21.04 42.78,20.63 43.18,20.22 43.37,20.09 43.55,19.96 43.77,19.88 43.98,19.80 44.21,19.77 44.44,19.75 44.67,19.78 44.89,19.81 45.11,19.89 45.32,19.97 45.51,20.10 45.70,20.23 45.85,20.40 46.00,20.58 46.10,20.78 46.21,20.98 46.26,21.20 46.32,21.43 46.32,21.66 46.32,21.89 46.26,22.11 46.20,22.33 46.10,22.53 45.99,22.73 45.84,22.90 45.68,23.08 44.44,25.73 43.19,28.39 42.08,30.22 40.97,32.04 39.63,34.13 38.29,36.22 36.60,38.74 34.92,41.25 33.93,42.80 32.95,44.34 32.82,44.74 32.68,45.14 32.54,45.30 32.41,45.46 32.24,45.58 32.07,45.70 31.87,45.78 31.68,45.86 31.47,45.89 31.26,45.92 31.05,45.89 30.84,45.87 30.64,45.80 30.45,45.73 30.27,45.61 30.10,45.50 29.95,45.34 29.81,45.19 29.71,45.00 29.61,44.82 29.56,44.62 29.50,44.41 29.50,44.20 29.50,43.99 29.54,43.79 29.59,43.58 29.68,43.40 29.78,43.21 31.39,41.81 33.01,40.41 34.95,38.86 36.89,37.30 38.47,36.11 40.04,34.92 41.38,33.95 42.71,32.98 42.47,33.04 42.23,33.11 42.44,33.00 42.64,32.89 42.87,32.83 43.10,32.78 43.33,32.78 43.57,32.77 43.80,32.83 44.02,32.89 44.23,32.99 44.44,33.10 44.62,33.26 44.79,33.41 44.93,33.61 45.06,33.80 45.14,34.02 45.23,34.24 45.26,34.47 45.28,34.70 45.26,34.94 45.23,35.17 45.15,35.39 45.06,35.61 44.93,35.80 44.80,36.00 44.62,36.15 44.45,36.31 43.78,37.71 43.12,39.12 41.85,41.29 40.57,43.45 39.31,45.53 38.04,47.62 37.13,49.20 36.21,50.77 35.76,51.81 35.31,52.86 35.12,53.47 34.92,54.08 34.79,54.28 34.65,54.49 34.47,54.65 34.29,54.82 34.07,54.94 33.86,55.05 33.62,55.12 33.38,55.18 33.13,55.18 32.89,55.19 32.65,55.13 32.41,55.08 32.19,54.97 31.97,54.86 31.78,54.70 31.60,54.54 31.45,54.34 31.31,54.14 31.22,53.91 31.13,53.68 31.10,53.44 31.06,53.20 31.09,52.95 31.11,52.71 31.20,52.48 31.28,52.24 32.45,51.15 33.62,50.05 35.25,49.03 36.88,48.01 38.73,46.94 40.58,45.88 41.91,45.06 43.25,44.24 45.35,46.12 47.45,48.00 47.27,48.30 47.09,48.61 46.82,48.84 46.55,49.06 46.22,49.20 45.90,49.33 45.54,49.35 45.19,49.37 44.85,49.28 44.51,49.18 44.22,48.99 43.92,48.79 43.71,48.51 43.49,48.23 43.38,47.90 43.27,47.56 43.26,47.21 43.26,46.85 43.37,46.52 43.49,46.18 43.70,45.90 43.91,45.62 44.20,45.42 44.49,45.22 44.83,45.13 45.17,45.03 45.53,45.05 45.88,45.07 46.21,45.19 46.54,45.32 46.81,45.55 47.08,45.78 47.26,46.08 47.44,46.38 47.52,46.73 47.60,47.07 47.56,47.42 47.52,47.77 47.38,48.10 47.23,48.42 46.99,48.67 46.75,48.93 46.43,49.10 46.12,49.26 45.77,49.32 45.43,49.38 45.08,49.33 44.73,49.27 44.42,49.11 44.10,48.94 43.86,48.69 43.62,48.43 43.47,48.11 43.32,47.79 43.28,47.44 43.24,47.09 43.31,46.74 43.39,46.40 43.39,46.40 43.39,46.40 44.31,47.04 45.23,47.68 43.93,48.38 42.62,49.09 40.92,50.29 39.21,51.50 37.06,52.79 34.92,54.08 34.79,54.28 34.65,54.49 34.47,54.65 34.29,54.82 34.07,54.94 33.86,55.05 33.62,55.12 33.38,55.18 33.13,55.18 32.89,55.19 32.65,55.13 32.41,55.08 32.19,54.97 31.97,54.86 31.78,54.70 31.60,54.54 31.45,54.34 31.31,54.14 31.22,53.91 31.13,53.68 31.10,53.44 31.06,53.20 31.09,52.95 31.11,52.71 31.20,52.48 31.28,52.24 31.67,51.67 32.07,51.10 32.73,50.08 33.40,49.07 34.35,47.55 35.31,46.03 36.48,43.93 37.64,41.83 38.77,39.66 39.90,37.48 41.06,35.30 42.23,33.11 42.44,33.00 42.64,32.89 42.87,32.83 43.10,32.78 43.33,32.78 43.57,32.77 43.80,32.83 44.02,32.89 44.23,32.99 44.44,33.10 44.62,33.26 44.79,33.41 44.93,33.61 45.06,33.80 45.14,34.02 45.23,34.24 45.25,34.47 45.28,34.70 45.26,34.94 45.23,35.17 45.15,35.39 45.06,35.61 44.93,35.80 44.80,36.00 44.62,36.15 44.45,36.31 43.18,36.87 41.91,37.43 40.38,38.55 38.85,39.67 37.01,41.25 35.17,42.83 33.92,43.98 32.68,45.14 32.54,45.30 32.41,45.46 32.24,45.58 32.07,45.70 31.87,45.78 31.68,45.86 31.47,45.89 31.26,45.92 31.05,45.89 30.84,45.87 30.64,45.80 30.45,45.73 30.27,45.61 30.10,45.50 29.95,45.34 29.81,45.19 29.71,45.00 29.61,44.82 29.56,44.62 29.50,44.41 29.50,44.20 29.50,43.99 29.54,43.79 29.59,43.58 29.68,43.40 29.78,43.21 30.03,42.89 30.29,42.57 31.32,41.08 32.36,39.59 33.96,37.07 35.56,34.55 36.77,32.45 37.99,30.35 38.96,28.51 39.93,26.68 40.86,24.70 41.80,22.72 42.49,21.47 43.18,20.22 43.36,20.09 43.55,19.96 43.77,19.88 43.98,19.80 44.21,19.77 44.44,19.75 44.67,19.78 44.89,19.80 45.11,19.89 45.32,19.97 45.51,20.10 45.70,20.23 45.85,20.40 46.00,20.58 46.10,20.78 46.21,20.98 46.26,21.20 46.32,21.43 46.32,21.66 46.32,21.89 46.26,22.11 46.20,22.33 46.10,22.53 45.99,22.73 45.84,22.90 45.68,23.08 45.15,23.36 44.61,23.64 43.68,24.28 42.75,24.92 41.00,26.49 39.25,28.06 36.41,30.75 33.57,33.43 30.30,36.45 27.02,39.47 24.55,41.81 22.08,44.16 21.10,44.88 20.12,45.60 19.98,45.77 19.84,45.93 19.66,46.06 19.49,46.18 19.29,46.26 19.09,46.34 18.88,46.37 18.66,46.40 18.45,46.38 18.23,46.36 18.03,46.29 17.83,46.22 17.65,46.10 17.47,45.98 17.32,45.82 17.18,45.66 17.07,45.47 16.97,45.29 16.91,45.08 16.86,44.87 16.86,44.65 16.85,44.44 16.90,44.23 16.95,44.02 17.04,43.83 17.14,43.63 17.38,43.38 17.63,43.12 18.33,42.28 19.03,41.43 20.34,39.49 21.65,37.54 23.86,34.24 26.07,30.94 28.82,26.81 31.56,22.67 33.69,19.27 35.82,15.87 36.87,13.98 37.92,12.10 38.09,11.98 38.26,11.86 38.46,11.78 38.65,11.70 38.86,11.68 39.07,11.65 39.27,11.67 39.48,11.69 39.68,11.77 39.88,11.84 40.05,11.95 40.22,12.07 40.36,12.23 40.50,12.38 40.60,12.56 40.70,12.75 40.76,12.95 40.81,13.15 40.81,13.36 40.81,13.57 40.77,13.77 40.72,13.98 40.63,14.17 40.53,14.35 40.39,14.51 40.26,14.67 39.29,15.17 38.33,15.66 36.74,17.13 35.14,18.61 32.27,21.26 29.39,23.90 25.68,27.23 21.98,30.55 19.15,33.03 16.33,35.51 13.90,37.24 11.47,38.97 11.32,39.12 11.17,39.28 10.98,39.39 10.80,39.50 10.60,39.57 10.39,39.64 10.18,39.66 9.96,39.67 9.75,39.64 9.54,39.60 9.34,39.52 9.14,39.43 8.97,39.30 8.80,39.17 8.66,39.00 8.53,38.84 8.44,38.64 8.35,38.45 8.30,38.24 8.26,38.02 8.27,37.81 8.28,37.59 8.34,37.39 8.40,37.18 8.51,37.00 8.62,36.81 9.34,36.01 10.06,35.21 11.28,33.64 12.50,32.08 14.69,29.28 16.88,26.49 19.94,22.51 23.01,18.53 25.91,14.57 28.82,10.62 30.95,7.30 33.08,3.98 34.16,2.15 35.24,0.32 35.41,0.17 35.59,0.03 35.79,-0.07 36.00,-0.17 36.22,-0.22 36.45,-0.27 36.68,-0.27 36.90,-0.26 37.13,-0.20 37.35,-0.14 37.55,-0.03 37.75,0.07 37.92,0.22 38.09,0.38 38.21,0.57 38.34,0.76 38.42,0.97 38.50,1.19 38.52,1.42 38.54,1.65 38.51,1.87 38.48,2.10 38.39,2.31 38.31,2.53 38.17,2.71 38.04,2.90 37.16,3.63 36.28,4.36 35.03,5.82 33.79,7.28 31.35,10.26 28.92,13.23 25.33,17.56 21.75,21.89 18.28,25.96 14.82,30.03 12.15,32.96 9.48,35.89 9.32,36.06 9.17,36.24 8.98,36.37 8.79,36.50 8.57,36.59 8.36,36.67 8.13,36.70 7.90,36.73 7.67,36.71 7.44,36.68 7.22,36.60 7.00,36.52 6.81,36.39 6.61,36.26 6.46,36.09 6.30,35.91 6.19,35.71 6.08,35.50 6.03,35.28 5.97,35.05 5.97,34.82 5.96,34.59 6.02,34.36 6.07,34.14 6.18,33.93 6.28,33.72 6.63,33.34 6.97,32.96 7.68,32.11 8.40,31.27 9.54,29.68 10.69,28.10 12.49,25.49 14.29,22.88 16.75,19.43 19.21,15.99 21.58,12.56 23.95,9.12 25.40,6.72 26.85,4.32 27.83,2.75 28.82,1.18 29.00,1.04 29.18,0.89 29.39,0.79 29.60,0.69 29.82,0.65 30.05,0.60 30.28,0.61 30.51,0.62 30.74,0.68 30.96,0.75 31.16,0.86 31.36,0.98 31.53,1.14 31.70,1.30 31.82,1.50 31.94,1.69 32.02,1.91 32.09,2.13 32.11,2.36 32.13,2.60 32.09,2.83 32.05,3.05 31.96,3.27 31.87,3.48 31.73,3.67 31.59,3.85 31.45,3.95 31.30,4.04 30.18,4.92 29.06,5.80 27.61,7.25 26.16,8.69 23.67,11.08 21.17,13.46 17.63,16.56 14.08,19.67 10.58,22.46 7.08,25.25 4.49,27.28 1.90,29.31 0.36,30.16 -1.17,31.00 -1.31,31.19 -1.45,31.38 -1.62,31.54 -1.80,31.69 -2.01,31.79 -2.22,31.90 -2.44,31.95 -2.67,32.00 -2.91,32.00 -3.14,32.00 -3.37,31.94 -3.59,31.88 -3.80,31.77 -4.00,31.66 -4.18,31.50 -4.35,31.34 -4.48,31.15 -4.61,30.95 -4.69,30.73 -4.77,30.51 -4.79,30.28 -4.82,30.05 -4.79,29.81 -4.75,29.58 -4.67,29.37 -4.58,29.15 -4.06,28.41 -3.55,27.66 -2.72,26.43 -1.90,25.20 -0.60,23.18 0.70,21.15 2.70,18.20 4.70,15.25 7.13,11.84 9.56,8.43 11.82,5.12 14.09,1.80 15.68,-0.90 17.28,-3.61 18.26,-4.82 19.23,-6.04 19.47,-7.16 19.71,-8.27 19.93,-8.41 20.14,-8.54 20.39,-8.62 20.63,-8.70 20.88,-8.72 21.14,-8.74 21.39,-8.69 21.64,-8.65 21.88,-8.55 22.11,-8.45 22.31,-8.29 22.52,-8.14 22.68,-7.94 22.84,-7.74 22.95,-7.51 23.05,-7.28 23.10,-7.02 23.15,-6.77 23.14,-6.52 23.13,-6.26 23.05,-6.02 22.98,-5.77 22.85,-5.55 22.72,-5.33 22.54,-5.15 22.36,-4.97 21.52,-4.46 20.67,-3.95 19.53,-3.12 18.39,-2.30 16.62,-0.69 14.85,0.92 12.15,3.52 9.44,6.12 6.71,8.85 3.98,11.58 2.12,13.42 0.25,15.26 -0.99,16.11 -2.24,16.96 -2.43,17.22 -2.62,17.49 -2.86,17.70 -3.10,17.91 -3.39,18.06 -3.68,18.21 -3.99,18.28 -4.31,18.36 -4.63,18.35 -4.96,18.35 -5.27,18.27 -5.58,18.19 -5.87,18.04 -6.15,17.89 -6.39,17.67 -6.63,17.45 -6.82,17.19 -7.00,16.92 -7.11,16.61 -7.22,16.31 -7.26,15.99 -7.29,15.67 -7.25,15.35 -7.21,15.03 -7.09,14.72 -6.98,14.42 -7.01,14.51 -7.04,14.59 -6.37,13.40 -5.71,12.21 -4.98,10.94 -4.25,9.67 -3.47,8.29 -2.69,6.91 -2.06,5.78 -1.43,4.65 -0.94,3.62 -0.46,2.58 -0.06,1.59 0.33,0.60 1.20,-0.59 2.07,-1.80 2.88,-0.91 3.69,-0.02 2.77,0.60 1.86,1.22 0.27,2.56 -1.31,3.89 -4.00,6.07 -6.70,8.25 -8.55,9.47 -10.41,10.69 -10.59,10.91 -10.77,11.14 -11.00,11.31 -11.23,11.48 -11.50,11.59 -11.76,11.70 -12.04,11.74 -12.33,11.79 -12.61,11.76 -12.90,11.74 -13.17,11.64 -13.44,11.55 -13.68,11.40 -13.92,11.24 -14.12,11.03 -14.32,10.82 -14.46,10.58 -14.60,10.33 -14.68,10.05 -14.75,9.78 -14.76,9.49 -14.77,9.20 -14.71,8.92 -14.66,8.64 -14.53,8.38 -14.41,8.13 -14.22,7.90 -14.04,7.67 -13.19,6.70 -12.34,5.73 -11.50,4.68 -10.66,3.64 -9.55,2.11 -8.45,0.58 -7.11,-1.45 -5.76,-3.50 -5.58,-3.69 -5.40,-3.89 -5.17,-4.03 -4.95,-4.18 -4.70,-4.27 -4.44,-4.36 -4.18,-4.38 -3.91,-4.41 -3.65,-4.37 -3.38,-4.33 -3.13,-4.23 -2.89,-4.12 -2.67,-3.97 -2.45,-3.81 -2.28,-3.60 -2.11,-3.40 -1.99,-3.16 -1.87,-2.92 -1.82,-2.66 -1.76,-2.40 -1.77,-2.13 -1.77,-1.86 -1.84,-1.60 -1.92,-1.34 -2.05,-1.11 -2.18,-0.88 -2.18,-0.88 L -2.18,-0.88 Z"></path></g><g transform="translate(270.63378168670033 214.78603044035003) rotate(0 -6.189688332407492 27.121949599693096)" stroke="none" fill="#3e5166"><path d="M -0.96,0.81 Q -0.96,0.81 -1.40,2.09 -1.85,3.37 -2.31,4.62 -2.77,5.88 -3.19,7.05 -3.61,8.23 -4.01,9.41 -4.41,10.60 -4.79,11.80 -5.18,13.00 -5.50,14.17 -5.81,15.34 -6.09,16.60 -6.38,17.85 -6.64,19.28 -6.91,20.71 -7.13,22.40 -7.35,24.08 -7.54,26.06 -7.73,28.03 -7.84,30.13 -7.95,32.23 -7.91,34.04 -7.86,35.84 -7.66,37.16 -7.47,38.48 -7.19,39.58 -6.91,40.68 -6.33,42.07 -5.74,43.47 -5.10,44.52 -4.45,45.58 -3.52,46.82 -2.58,48.07 -1.97,49.13 -1.37,50.20 -0.60,51.50 0.16,52.80 0.32,53.24 0.48,53.68 0.50,54.16 0.51,54.63 0.37,55.08 0.24,55.53 -0.03,55.91 -0.30,56.30 -0.68,56.57 -1.07,56.85 -1.52,56.99 -1.97,57.13 -2.44,57.11 -2.91,57.10 -3.35,56.94 -3.80,56.78 -4.16,56.48 -4.53,56.19 -4.79,55.79 -5.04,55.40 -5.16,54.94 -5.27,54.48 -5.23,54.01 -5.20,53.54 -5.01,53.11 -4.83,52.67 -4.51,52.32 -4.20,51.97 -3.79,51.74 -3.38,51.51 -2.91,51.42 -2.45,51.33 -1.98,51.39 -1.52,51.45 -1.09,51.66 -0.67,51.87 -0.34,52.20 -0.00,52.53 0.20,52.96 0.41,53.38 0.47,53.85 0.54,54.31 0.45,54.78 0.36,55.24 0.13,55.65 -0.09,56.06 -0.44,56.38 -0.79,56.69 -1.23,56.88 -1.66,57.07 -2.13,57.10 -2.60,57.14 -3.06,57.03 -3.51,56.92 -3.91,56.66 -4.31,56.41 -4.61,56.04 -4.90,55.68 -4.90,55.68 -4.90,55.68 -6.14,53.43 -7.38,51.18 -8.25,49.68 -9.12,48.17 -9.53,47.19 -9.94,46.21 -10.31,44.89 -10.67,43.57 -10.90,42.53 -11.13,41.49 -11.31,40.19 -11.49,38.90 -11.58,37.43 -11.67,35.97 -11.75,34.10 -11.82,32.23 -11.93,30.05 -12.04,27.86 -12.07,25.76 -12.11,23.66 -12.01,21.76 -11.91,19.86 -11.66,18.29 -11.42,16.71 -11.10,15.33 -10.78,13.95 -10.41,12.66 -10.03,11.37 -9.60,10.14 -9.18,8.91 -8.72,7.68 -8.27,6.46 -7.80,5.29 -7.33,4.13 -6.85,2.92 -6.36,1.71 -5.88,0.45 -5.39,-0.81 -5.26,-1.06 -5.13,-1.31 -4.95,-1.53 -4.76,-1.74 -4.53,-1.91 -4.30,-2.07 -4.03,-2.18 -3.77,-2.28 -3.49,-2.32 -3.20,-2.36 -2.92,-2.33 -2.64,-2.29 -2.37,-2.20 -2.10,-2.10 -1.87,-1.94 -1.63,-1.78 -1.44,-1.57 -1.25,-1.36 -1.11,-1.11 -0.98,-0.86 -0.91,-0.58 -0.84,-0.31 -0.83,-0.02 -0.83,0.25 -0.89,0.53 -0.96,0.81 -0.96,0.81 L -0.96,0.81 Z"></path></g><g transform="translate(272.2624940479874 208.89571262588606) rotate(0 -5.151108176245728 3.451638474464744)" stroke="none" fill="#3e5166"><path d="M -1.24,1.77 Q -1.24,1.77 -2.25,2.73 -3.25,3.69 -4.28,4.70 -5.31,5.71 -6.25,6.36 -7.18,7.02 -9.01,6.80 -10.83,6.58 -11.07,5.05 -11.32,3.52 -10.53,2.26 -9.74,1.00 -8.56,0.04 -7.37,-0.91 -6.35,-1.47 -5.33,-2.04 -3.26,-2.05 -1.19,-2.06 -0.31,-1.36 0.56,-0.66 0.88,0.94 1.20,2.55 1.68,4.27 2.16,6.00 2.22,6.55 2.28,7.10 2.16,7.63 2.04,8.17 1.75,8.64 1.46,9.11 1.04,9.47 0.62,9.82 0.11,10.03 -0.40,10.23 -0.95,10.26 -1.50,10.28 -2.03,10.14 -2.56,9.99 -3.01,9.67 -3.47,9.36 -3.80,8.92 -4.13,8.48 -4.31,7.96 -4.48,7.44 -4.48,6.89 -4.48,6.33 -4.30,5.81 -4.12,5.29 -3.79,4.85 -3.45,4.42 -2.99,4.11 -2.53,3.80 -2.00,3.65 -1.47,3.51 -0.92,3.54 -0.37,3.57 0.13,3.78 0.64,3.98 1.06,4.34 1.48,4.70 1.76,5.18 2.05,5.65 2.16,6.19 2.28,6.73 2.22,7.27 2.15,7.82 1.92,8.32 1.69,8.82 1.31,9.22 0.93,9.62 0.44,9.88 -0.04,10.13 -0.58,10.22 -1.13,10.31 -1.67,10.22 -2.22,10.12 -2.70,9.86 -3.19,9.60 -3.57,9.20 -3.94,8.80 -4.17,8.30 -4.40,7.80 -4.40,7.80 -4.40,7.80 -4.84,5.04 -5.28,2.28 -3.94,3.04 -2.61,3.80 -3.79,4.33 -4.97,4.87 -5.97,5.37 -6.97,5.87 -7.80,3.73 -8.63,1.59 -7.62,0.85 -6.62,0.10 -5.60,-0.83 -4.59,-1.77 -4.35,-1.95 -4.11,-2.12 -3.84,-2.24 -3.57,-2.35 -3.28,-2.39 -2.99,-2.44 -2.69,-2.41 -2.40,-2.38 -2.12,-2.29 -1.84,-2.19 -1.60,-2.03 -1.35,-1.87 -1.15,-1.66 -0.95,-1.44 -0.80,-1.18 -0.66,-0.93 -0.58,-0.64 -0.50,-0.36 -0.49,-0.07 -0.48,0.22 -0.54,0.51 -0.61,0.79 -0.74,1.06 -0.86,1.32 -1.05,1.55 -1.24,1.78 -1.24,1.78 L -1.24,1.77 Z"></path></g><g transform="translate(276.67870787357083 263.88403062199313) rotate(0 27.96749777321793 8.526676150371316)"><text x="0" y="12.053352300742638" font-family="Virgil, Segoe UI Emoji" font-size="13.642681840594104px" fill="#3e5166" text-anchor="start" style="white-space: pre;" direction="ltr">Material</text></g><g stroke-linecap="round" transform="translate(78.8539373698192 275.3622508412793) rotate(335.58814462392536 16.552495013081153 15.218929321107339)"><path d="M-3.86 1.82 C6.64 -1.42, 19.42 0.59, 35.72 3.54 M1.12 -0.79 C9 1.74, 19.84 -0.91, 34.78 1.91 M31.26 -2.24 C34.87 6.56, 33.12 16.34, 35.54 32.07 M31.12 -0.99 C31.43 9.76, 33.81 23.88, 32.56 29.59 M31.7 31.31 C19.67 33.32, 8.61 30.82, -0.27 31.05 M32.13 30.61 C19.71 32.82, 7.86 31.24, -1.18 30.72 M-3.14 30.45 C3.86 20.73, 2.67 20.2, 1.42 -1.13 M0.48 28.68 C2.35 22.39, 2.37 16.94, -1.37 -0.76" stroke="#3e5166" stroke-width="1" fill="none"></path></g><g stroke-linecap="round"><g transform="translate(105.33508370118787 270.401593236384) rotate(0 4.65052110852757 -13.679196815699129)"><path d="M0.09 -0.89 C1.79 -5.43, 10.94 -22.72, 12.6 -26.47 M-3.3 -3.84 C-2.12 -8.07, 7.62 -19.51, 10.84 -23.53" stroke="#3e5166" stroke-width="1" fill="none"></path></g></g><g stroke-linecap="round"><g transform="translate(118.54411463586386 297.47031382705313) rotate(0 17.013436076807775 1.6728052865757377)"><path d="M-2.7 0.56 C3.59 0.7, 30.55 1.29, 36.73 1.62 M1.03 -1.6 C7 -1.11, 27.81 3.7, 34.26 4.95" stroke="#3e5166" stroke-width="1" fill="none"></path></g></g><g stroke-linecap="round"><g transform="translate(116.51131078965949 245.42237110379244) rotate(0 17.107717669491972 28.643667660864878)"><path d="M0.9 2.64 C7.19 11.59, 30.63 44.18, 36.27 52.77 M-2.06 1.61 C3.97 11, 26.73 46.39, 33.84 55.68" stroke="#3e5166" stroke-width="1" fill="none"></path></g></g><g stroke-linecap="round"><g transform="translate(115.8368885250051 347.3590272961503) rotate(0 96.79899285435678 -213.159412153296)"><path d="M-1.36 -105.1 C31.46 -141.46, 195.42 -322.63, 195.35 -322.43 C195.28 -322.22, 31.21 -140.38, -1.75 -103.89" stroke="#b2eed8" stroke-width="1.5" fill="none" stroke-dasharray="1.5 7"></path></g></g><g stroke-linecap="round"><g transform="translate(215.52893237208212 460.40568057461314) rotate(39.90830962585735 77.59993547463746 -204.93454650294083)"><path d="M1.52 -83.54 C27.1 -123.89, 153.54 -325.59, 153.68 -326.33 C153.82 -327.07, 28.04 -128.46, 2.36 -87.97" stroke="#b2eed8" stroke-width="1.5" fill="none" stroke-dasharray="1.5 7"></path></g></g><g transform="translate(87.86137657444444 315.2585450869685) rotate(0 24.556827313069405 8.526676150371316)"><text x="0" y="12.053352300742638" font-family="Virgil, Segoe UI Emoji" font-size="13.642681840594117px" fill="#3e5166" text-anchor="start" style="white-space: pre;" direction="ltr">Camera</text></g><g stroke-linecap="round" transform="translate(437.3883175456005 69.78034746336118) rotate(0 9.951043245676146 9.439182463148285)"><path d="M3.77 1.96 C3.77 1.96, 3.77 1.96, 3.77 1.96 M3.77 1.96 C3.77 1.96, 3.77 1.96, 3.77 1.96 M2.2 9.86 C5.29 6.31, 8.38 2.75, 10.73 0.05 M2.2 9.86 C4.4 7.34, 6.59 4.81, 10.73 0.05 M10.73 0.05 C10.73 0.05, 10.73 0.05, 10.73 0.05 M10.73 0.05 C10.73 0.05, 10.73 0.05, 10.73 0.05 M2.6 15.51 C5.37 12.32, 8.14 9.13, 13.75 2.68 M2.6 15.51 C5.77 11.85, 8.95 8.19, 13.75 2.68 M14.4 1.92 C14.4 1.92, 14.4 1.92, 14.4 1.92 M14.4 1.92 C14.4 1.92, 14.4 1.92, 14.4 1.92 M5.61 18.13 C10 13.09, 14.38 8.04, 16.77 5.3 M5.61 18.13 C9.61 13.53, 13.61 8.93, 16.77 5.3 M18.08 3.79 C18.08 3.79, 18.08 3.79, 18.08 3.79 M18.08 3.79 C18.08 3.79, 18.08 3.79, 18.08 3.79 M8.63 20.75 C11.03 17.99, 13.43 15.23, 19.79 7.92 M8.63 20.75 C11.07 17.95, 13.51 15.14, 19.79 7.92" stroke="#fab005" stroke-width="0.5" fill="none"></path><path d="M16.35 2.21 C17.98 3.51, 19.38 5.81, 19.75 7.8 C20.12 9.79, 19.63 12.41, 18.57 14.16 C17.5 15.91, 15.36 17.62, 13.35 18.31 C11.35 19, 8.55 19, 6.55 18.31 C4.54 17.62, 2.4 15.91, 1.33 14.16 C0.27 12.41, -0.22 9.79, 0.15 7.8 C0.52 5.81, 1.92 3.51, 3.55 2.21 C5.19 0.91, 7.82 0, 9.95 0 C12.08 0, 14.71 0.91, 16.35 2.21" stroke="#e67700" stroke-width="1" fill="none"></path></g><g stroke-linecap="round"><g transform="translate(438.8935173642739 72.54100458660776) rotate(0 -84.1013172549863 26.603000601273635)"><path d="M0 0 C-28.03 8.87, -140.17 44.34, -168.2 53.21 M0 0 C-28.03 8.87, -140.17 44.34, -168.2 53.21" stroke="#e67700" stroke-width="1" fill="none"></path></g></g><g stroke-linecap="round"><g transform="translate(449.09596849048717 92.55816789866026) rotate(0 -67.8533361625092 61.15471193143685)"><path d="M0 0 C-22.62 20.38, -113.09 101.92, -135.71 122.31 M0 0 C-22.62 20.38, -113.09 101.92, -135.71 122.31" stroke="#e67700" stroke-width="1" fill="none"></path></g></g><g transform="translate(458.8952344026368 97.24700709814749) rotate(0 16.371218208712918 8.526676150371316)"><text x="0" y="12.053352300742638" font-family="Virgil, Segoe UI Emoji" font-size="13.642681840594111px" fill="#3e5166" text-anchor="start" style="white-space: pre;" direction="ltr">Light</text></g><g transform="translate(314.6097660267288 144.55184478731871) rotate(0 -6.001903434566955 25.797743886950514)" stroke="none" fill="#ededed"><path d="M -1.88,1.24 Q -1.88,1.24 -2.69,2.53 -3.49,3.83 -4.52,5.36 -5.56,6.89 -6.57,8.46 -7.58,10.03 -8.21,11.27 -8.84,12.50 -9.30,13.75 -9.76,15.00 -9.83,15.29 -9.91,15.57 -10.06,15.83 -10.22,16.09 -10.43,16.30 -10.64,16.52 -10.90,16.67 -11.15,16.83 -11.44,16.92 -11.73,17.01 -12.03,17.03 -12.33,17.05 -12.62,17.00 -12.92,16.95 -13.19,16.83 -13.47,16.71 -13.71,16.52 -13.94,16.34 -14.13,16.10 -14.32,15.87 -14.44,15.59 -14.57,15.32 -14.62,15.03 -14.68,14.73 -14.66,14.43 -14.65,14.13 -14.56,13.84 -14.47,13.56 -12.97,12.07 -11.47,10.58 -9.99,9.45 -8.51,8.32 -7.01,7.09 -5.51,5.86 -4.42,4.84 -3.33,3.82 -2.58,3.00 -1.83,2.19 -1.60,2.01 -1.36,1.84 -1.09,1.72 -0.82,1.61 -0.54,1.56 -0.25,1.51 0.04,1.54 0.33,1.56 0.61,1.65 0.88,1.75 1.13,1.90 1.38,2.06 1.58,2.27 1.79,2.48 1.93,2.74 2.08,2.99 2.16,3.27 2.24,3.55 2.25,3.85 2.26,4.14 2.21,4.43 2.15,4.71 2.02,4.98 1.90,5.24 1.71,5.47 1.52,5.70 1.11,6.70 0.69,7.70 -0.41,9.64 -1.52,11.57 -2.68,13.66 -3.84,15.76 -4.55,17.26 -5.26,18.76 -5.66,19.97 -6.07,21.18 -6.21,21.41 -6.35,21.64 -6.54,21.83 -6.73,22.02 -6.96,22.16 -7.20,22.30 -7.45,22.37 -7.71,22.45 -7.98,22.47 -8.25,22.48 -8.51,22.43 -8.78,22.38 -9.02,22.27 -9.27,22.16 -9.48,21.99 -9.69,21.82 -9.85,21.61 -10.02,21.39 -10.13,21.15 -10.24,20.90 -10.28,20.63 -10.33,20.37 -10.31,20.10 -10.29,19.83 -10.21,19.58 -10.13,19.32 -8.74,17.56 -7.34,15.81 -6.41,14.80 -5.47,13.79 -4.58,12.71 -3.69,11.64 -3.60,11.56 -3.52,11.48 -3.28,11.27 -3.04,11.06 -2.76,10.91 -2.48,10.76 -2.17,10.69 -1.86,10.61 -1.55,10.61 -1.23,10.61 -0.92,10.68 -0.61,10.76 -0.33,10.91 -0.05,11.05 0.18,11.27 0.41,11.48 0.59,11.74 0.78,12.00 0.89,12.29 1.00,12.59 1.04,12.91 1.08,13.22 1.04,13.54 1.00,13.85 0.89,14.15 0.78,14.44 0.60,14.71 0.42,14.97 -0.43,16.82 -1.29,18.67 -2.68,21.17 -4.08,23.67 -5.41,25.99 -6.74,28.30 -7.71,30.08 -8.69,31.85 -9.18,33.24 -9.68,34.63 -9.82,34.85 -9.95,35.06 -10.14,35.24 -10.32,35.42 -10.55,35.55 -10.77,35.68 -11.01,35.75 -11.26,35.82 -11.52,35.83 -11.77,35.84 -12.02,35.79 -12.27,35.74 -12.51,35.63 -12.74,35.52 -12.94,35.36 -13.14,35.20 -13.29,34.99 -13.44,34.79 -13.54,34.55 -13.65,34.32 -13.69,34.06 -13.73,33.81 -13.71,33.55 -13.69,33.30 -13.61,33.06 -13.53,32.81 -12.76,31.76 -11.99,30.72 -10.57,28.89 -9.15,27.06 -7.55,24.89 -5.94,22.72 -4.80,21.09 -3.67,19.45 -3.04,18.25 -2.40,17.05 -2.24,16.87 -2.08,16.68 -1.88,16.55 -1.68,16.41 -1.45,16.32 -1.22,16.23 -0.98,16.20 -0.74,16.17 -0.50,16.20 -0.26,16.23 -0.03,16.31 0.19,16.40 0.39,16.53 0.60,16.67 0.76,16.85 0.92,17.04 1.04,17.25 1.15,17.47 1.21,17.70 1.27,17.94 1.27,18.18 1.27,18.43 1.21,18.67 1.16,18.90 1.04,19.12 0.93,19.34 0.53,20.51 0.12,21.69 -1.09,24.00 -2.31,26.31 -3.65,28.84 -5.00,31.37 -5.97,33.20 -6.94,35.02 -7.37,36.14 -7.80,37.26 -7.91,37.81 -8.02,38.35 -8.14,38.56 -8.27,38.77 -8.44,38.93 -8.62,39.10 -8.83,39.23 -9.03,39.35 -9.27,39.42 -9.50,39.49 -9.74,39.50 -9.98,39.51 -10.22,39.47 -10.46,39.42 -10.68,39.32 -10.89,39.22 -11.08,39.07 -11.27,38.92 -11.42,38.72 -11.57,38.53 -11.66,38.31 -11.76,38.09 -11.80,37.85 -11.84,37.61 -11.83,37.37 -11.81,37.13 -11.73,36.90 -11.66,36.67 -11.06,35.67 -10.47,34.68 -9.36,33.24 -8.24,31.81 -6.78,30.13 -5.32,28.44 -4.44,27.30 -3.56,26.15 -3.06,25.38 -2.56,24.60 -2.37,24.42 -2.18,24.23 -1.95,24.09 -1.71,23.96 -1.46,23.88 -1.20,23.81 -0.93,23.79 -0.66,23.78 -0.40,23.83 -0.14,23.89 0.10,24.00 0.34,24.11 0.55,24.28 0.76,24.45 0.92,24.66 1.08,24.88 1.19,25.13 1.30,25.37 1.34,25.64 1.39,25.90 1.37,26.17 1.35,26.44 1.26,26.69 1.18,26.95 1.04,27.18 0.89,27.40 0.54,28.74 0.18,30.08 -0.79,32.17 -1.78,34.25 -2.63,36.13 -3.49,38.01 -3.93,39.24 -4.36,40.48 -4.58,41.57 -4.80,42.66 -4.92,42.90 -5.04,43.15 -5.22,43.36 -5.40,43.57 -5.62,43.73 -5.84,43.89 -6.10,43.99 -6.35,44.09 -6.62,44.13 -6.89,44.17 -7.17,44.14 -7.44,44.12 -7.70,44.02 -7.96,43.93 -8.19,43.78 -8.41,43.63 -8.60,43.43 -8.79,43.23 -8.92,42.99 -9.05,42.75 -9.12,42.48 -9.19,42.22 -9.20,41.94 -9.21,41.67 -9.15,41.40 -9.09,41.13 -8.30,40.24 -7.52,39.35 -6.36,38.41 -5.20,37.48 -4.80,37.22 -4.40,36.96 -4.10,36.82 -3.81,36.69 -3.49,36.63 -3.18,36.57 -2.85,36.59 -2.53,36.61 -2.22,36.70 -1.92,36.80 -1.64,36.96 -1.36,37.13 -1.13,37.35 -0.90,37.58 -0.73,37.86 -0.57,38.13 -0.47,38.44 -0.37,38.75 -0.35,39.07 -0.33,39.39 -0.39,39.71 -0.44,40.02 -0.57,40.32 -0.71,40.61 -0.90,40.87 -1.10,41.12 -1.35,41.32 -1.61,41.52 -0.95,40.49 -0.29,39.46 -0.65,41.84 -1.00,44.22 -1.31,45.69 -1.61,47.17 -1.79,48.31 -1.96,49.45 -2.04,50.59 -2.12,51.73 -2.21,52.06 -2.29,52.39 -2.46,52.69 -2.62,53.00 -2.85,53.25 -3.08,53.50 -3.37,53.70 -3.65,53.89 -3.97,54.01 -4.30,54.12 -4.64,54.16 -4.98,54.20 -5.32,54.15 -5.66,54.11 -5.98,53.98 -6.30,53.86 -6.58,53.66 -6.86,53.46 -7.09,53.20 -7.31,52.94 -7.47,52.64 -7.62,52.33 -7.70,52.00 -7.78,51.66 -7.77,51.32 -7.77,50.97 -7.14,49.96 -6.51,48.95 -5.69,47.80 -4.86,46.66 -4.05,45.68 -3.25,44.70 -4.05,46.95 -4.86,49.21 -4.92,48.72 -4.98,48.23 -4.88,47.74 -4.78,47.26 -4.53,46.83 -4.28,46.41 -3.91,46.08 -3.54,45.76 -3.08,45.57 -2.62,45.38 -2.13,45.34 -1.64,45.31 -1.16,45.44 -0.68,45.56 -0.27,45.83 0.13,46.11 0.44,46.50 0.74,46.89 0.90,47.35 1.07,47.82 1.07,48.31 1.08,48.81 0.93,49.28 0.78,49.75 0.48,50.14 0.19,50.54 -0.20,50.82 -0.61,51.11 -1.08,51.24 -1.56,51.38 -2.05,51.36 -2.55,51.34 -3.01,51.17 -3.47,50.99 -3.85,50.67 -4.23,50.36 -4.49,49.94 -4.75,49.52 -4.86,49.04 -4.98,48.56 -4.93,48.07 -4.88,47.57 -4.68,47.12 -4.48,46.67 -4.14,46.31 -3.81,45.94 -3.38,45.71 -2.94,45.47 -2.46,45.38 -1.97,45.30 -1.48,45.37 -0.99,45.44 -0.55,45.67 -0.11,45.90 0.22,46.25 0.57,46.60 0.78,47.05 0.99,47.50 0.99,47.50 0.99,47.50 1.11,48.13 1.22,48.76 0.46,49.53 -0.28,50.31 -1.20,51.02 -2.12,51.73 -2.21,52.06 -2.29,52.39 -2.46,52.69 -2.62,53.00 -2.85,53.25 -3.08,53.50 -3.37,53.70 -3.65,53.89 -3.97,54.01 -4.30,54.12 -4.64,54.16 -4.98,54.20 -5.32,54.15 -5.66,54.11 -5.98,53.98 -6.30,53.86 -6.58,53.66 -6.86,53.46 -7.08,53.20 -7.31,52.94 -7.47,52.64 -7.62,52.33 -7.70,52.00 -7.78,51.66 -7.77,51.32 -7.77,50.97 -7.74,50.85 -7.71,50.73 -7.49,49.66 -7.28,48.59 -7.07,47.40 -6.86,46.22 -6.62,44.71 -6.39,43.19 -6.02,41.51 -5.65,39.83 -5.02,38.39 -4.40,36.96 -4.10,36.82 -3.81,36.69 -3.49,36.63 -3.18,36.57 -2.85,36.59 -2.53,36.61 -2.22,36.70 -1.92,36.79 -1.64,36.96 -1.36,37.13 -1.13,37.35 -0.90,37.58 -0.73,37.86 -0.57,38.13 -0.47,38.44 -0.37,38.75 -0.35,39.07 -0.33,39.39 -0.39,39.71 -0.44,40.02 -0.57,40.32 -0.70,40.61 -0.90,40.87 -1.10,41.12 -1.35,41.32 -1.61,41.52 -2.03,41.69 -2.46,41.85 -3.63,42.25 -4.80,42.66 -4.92,42.90 -5.04,43.15 -5.22,43.36 -5.40,43.57 -5.62,43.73 -5.84,43.89 -6.10,43.99 -6.35,44.09 -6.62,44.13 -6.89,44.17 -7.17,44.14 -7.44,44.12 -7.70,44.02 -7.96,43.93 -8.19,43.78 -8.41,43.63 -8.60,43.43 -8.79,43.23 -8.92,42.99 -9.05,42.75 -9.12,42.48 -9.19,42.22 -9.20,41.94 -9.21,41.67 -9.15,41.40 -9.09,41.13 -9.09,41.14 -9.10,41.14 -8.59,40.04 -8.07,38.93 -7.50,37.76 -6.94,36.59 -6.23,34.66 -5.51,32.73 -4.79,30.63 -4.07,28.53 -3.32,26.57 -2.56,24.60 -2.37,24.42 -2.18,24.23 -1.95,24.09 -1.72,23.96 -1.46,23.88 -1.20,23.81 -0.93,23.79 -0.66,23.78 -0.40,23.83 -0.14,23.89 0.10,24.00 0.34,24.11 0.55,24.28 0.76,24.45 0.92,24.66 1.08,24.88 1.19,25.13 1.30,25.37 1.34,25.64 1.39,25.90 1.37,26.17 1.35,26.44 1.26,26.69 1.18,26.95 1.04,27.18 0.89,27.40 0.20,28.06 -0.49,28.72 -1.42,29.75 -2.36,30.78 -3.63,32.55 -4.90,34.32 -6.46,36.34 -8.02,38.35 -8.14,38.56 -8.27,38.77 -8.44,38.93 -8.62,39.10 -8.82,39.23 -9.03,39.35 -9.27,39.42 -9.50,39.49 -9.74,39.50 -9.98,39.51 -10.22,39.47 -10.46,39.42 -10.67,39.32 -10.89,39.22 -11.08,39.07 -11.27,38.92 -11.42,38.72 -11.57,38.53 -11.66,38.31 -11.76,38.09 -11.80,37.85 -11.84,37.61 -11.83,37.37 -11.81,37.13 -11.73,36.90 -11.66,36.67 -11.61,37.21 -11.56,37.76 -11.34,36.71 -11.11,35.66 -10.49,34.60 -9.87,33.54 -8.97,31.69 -8.08,29.84 -6.88,27.27 -5.68,24.70 -4.68,22.40 -3.69,20.10 -3.05,18.57 -2.40,17.05 -2.24,16.87 -2.08,16.68 -1.88,16.55 -1.68,16.41 -1.45,16.32 -1.23,16.23 -0.98,16.20 -0.74,16.17 -0.50,16.20 -0.26,16.23 -0.03,16.31 0.19,16.40 0.39,16.53 0.59,16.67 0.76,16.85 0.92,17.04 1.03,17.25 1.15,17.47 1.21,17.70 1.27,17.94 1.27,18.18 1.27,18.43 1.21,18.67 1.16,18.90 1.04,19.12 0.93,19.34 0.04,20.35 -0.84,21.35 -1.93,23.05 -3.03,24.74 -4.51,27.01 -5.99,29.28 -7.83,31.95 -9.68,34.63 -9.82,34.85 -9.95,35.06 -10.14,35.24 -10.32,35.42 -10.54,35.55 -10.77,35.68 -11.01,35.75 -11.26,35.82 -11.52,35.83 -11.77,35.84 -12.02,35.79 -12.27,35.74 -12.51,35.63 -12.74,35.52 -12.94,35.36 -13.13,35.20 -13.29,34.99 -13.44,34.79 -13.54,34.55 -13.65,34.32 -13.69,34.06 -13.73,33.81 -13.71,33.55 -13.69,33.30 -13.61,33.06 -13.53,32.81 -13.29,32.45 -13.05,32.10 -12.50,31.14 -11.95,30.19 -11.08,28.35 -10.21,26.50 -9.11,24.13 -8.00,21.75 -6.90,19.16 -5.80,16.57 -4.66,14.02 -3.52,11.48 -3.28,11.27 -3.04,11.06 -2.76,10.91 -2.48,10.76 -2.17,10.69 -1.86,10.61 -1.55,10.61 -1.23,10.61 -0.92,10.68 -0.61,10.76 -0.33,10.91 -0.05,11.05 0.18,11.26 0.41,11.48 0.59,11.74 0.78,12.00 0.89,12.29 1.00,12.59 1.04,12.91 1.08,13.22 1.04,13.54 1.00,13.85 0.89,14.15 0.78,14.44 0.60,14.71 0.42,14.97 0.30,15.04 0.17,15.11 -0.90,16.12 -1.98,17.13 -2.89,18.05 -3.80,18.98 -4.93,20.08 -6.07,21.18 -6.21,21.41 -6.35,21.64 -6.54,21.83 -6.73,22.02 -6.96,22.16 -7.20,22.30 -7.45,22.37 -7.71,22.45 -7.98,22.47 -8.25,22.48 -8.51,22.43 -8.78,22.38 -9.02,22.27 -9.27,22.16 -9.48,21.99 -9.69,21.82 -9.85,21.61 -10.02,21.39 -10.13,21.15 -10.24,20.90 -10.28,20.64 -10.33,20.37 -10.31,20.10 -10.29,19.83 -10.21,19.58 -10.13,19.32 -9.46,18.18 -8.80,17.03 -8.05,15.54 -7.30,14.04 -6.34,11.86 -5.38,9.68 -4.50,7.54 -3.62,5.40 -2.73,3.79 -1.83,2.19 -1.60,2.01 -1.36,1.84 -1.09,1.72 -0.82,1.61 -0.54,1.56 -0.25,1.51 0.04,1.54 0.33,1.56 0.61,1.65 0.88,1.75 1.13,1.90 1.38,2.06 1.58,2.27 1.79,2.48 1.93,2.74 2.08,2.99 2.16,3.27 2.24,3.55 2.25,3.85 2.26,4.14 2.21,4.43 2.15,4.71 2.02,4.98 1.90,5.24 1.71,5.47 1.52,5.70 0.60,6.40 -0.32,7.11 -1.44,8.10 -2.55,9.09 -3.98,10.54 -5.41,11.98 -7.66,13.78 -9.91,15.57 -10.06,15.83 -10.22,16.09 -10.43,16.30 -10.64,16.52 -10.90,16.67 -11.15,16.83 -11.44,16.92 -11.73,17.01 -12.03,17.03 -12.33,17.05 -12.62,17.00 -12.92,16.95 -13.19,16.83 -13.47,16.71 -13.71,16.52 -13.94,16.34 -14.13,16.10 -14.32,15.87 -14.44,15.60 -14.57,15.32 -14.62,15.03 -14.68,14.73 -14.66,14.43 -14.65,14.13 -14.56,13.84 -14.47,13.56 -14.33,13.30 -14.19,13.05 -13.43,11.73 -12.68,10.41 -11.94,9.13 -11.21,7.86 -10.28,6.19 -9.34,4.52 -8.43,2.93 -7.51,1.34 -6.71,0.05 -5.91,-1.24 -5.74,-1.46 -5.56,-1.69 -5.33,-1.86 -5.10,-2.03 -4.84,-2.15 -4.58,-2.26 -4.30,-2.31 -4.02,-2.36 -3.73,-2.34 -3.45,-2.32 -3.18,-2.23 -2.91,-2.15 -2.66,-2.00 -2.42,-1.85 -2.22,-1.64 -2.02,-1.44 -1.87,-1.19 -1.73,-0.95 -1.65,-0.67 -1.56,-0.40 -1.55,-0.11 -1.54,0.16 -1.59,0.44 -1.64,0.72 -1.76,0.98 -1.88,1.24 -1.88,1.24 L -1.88,1.24 Z"></path></g><g transform="translate(277.0400972980663 134.72287290137308) rotate(0 2.1365769606117624 6.98741958808921)" stroke="none" fill="#ededed"><path d="M -6.67,1.75 Q -6.67,1.75 -8.53,3.12 -10.40,4.50 -12.25,5.80 -14.11,7.09 -15.69,8.22 -17.28,9.34 -18.27,10.15 -19.27,10.96 -20.24,11.78 -21.20,12.61 -21.93,13.44 -22.66,14.28 -22.89,14.73 -23.12,15.18 -23.31,15.45 -23.51,15.72 -23.76,15.93 -24.02,16.15 -24.31,16.29 -24.61,16.44 -24.93,16.51 -25.25,16.58 -25.59,16.58 -25.92,16.57 -26.24,16.48 -26.56,16.40 -26.85,16.24 -27.14,16.07 -27.38,15.85 -27.62,15.62 -27.80,15.35 -27.98,15.07 -28.09,14.76 -28.20,14.45 -28.24,14.12 -28.27,13.79 -28.22,13.46 -28.17,13.13 -28.05,12.82 -27.92,12.52 -26.60,11.13 -25.27,9.75 -23.58,8.73 -21.90,7.71 -19.47,6.71 -17.05,5.71 -14.16,4.77 -11.27,3.83 -8.89,3.21 -6.52,2.59 -4.95,2.16 -3.39,1.74 -2.25,1.35 -1.12,0.97 -0.86,0.94 -0.60,0.92 -0.33,0.96 -0.07,1.00 0.16,1.10 0.41,1.20 0.62,1.35 0.83,1.51 1.00,1.71 1.17,1.91 1.29,2.15 1.41,2.39 1.46,2.65 1.52,2.90 1.51,3.17 1.51,3.43 1.44,3.69 1.37,3.94 1.24,4.17 1.11,4.40 0.93,4.60 0.75,4.79 0.53,4.94 0.31,5.08 0.06,5.17 -0.18,5.25 -1.19,6.51 -2.20,7.76 -3.47,8.79 -4.74,9.83 -5.68,10.65 -6.61,11.47 -7.18,12.06 -7.76,12.66 -8.01,12.82 -8.27,12.99 -8.55,13.09 -8.84,13.18 -9.14,13.21 -9.44,13.24 -9.74,13.20 -10.04,13.15 -10.32,13.04 -10.60,12.92 -10.85,12.74 -11.09,12.56 -11.29,12.33 -11.48,12.10 -11.61,11.82 -11.75,11.55 -11.81,11.26 -11.88,10.96 -11.87,10.66 -11.86,10.35 -11.78,10.06 -11.70,9.77 -11.55,9.51 -11.40,9.24 -11.19,9.02 -10.99,8.80 -9.15,7.68 -7.32,6.57 -5.44,5.75 -3.57,4.94 -1.63,4.22 0.31,3.50 1.38,3.03 2.45,2.56 3.05,2.25 3.65,1.93 3.93,1.86 4.22,1.80 4.51,1.80 4.80,1.80 5.08,1.87 5.36,1.94 5.62,2.08 5.88,2.21 6.10,2.41 6.31,2.60 6.48,2.84 6.64,3.08 6.74,3.35 6.85,3.63 6.88,3.92 6.91,4.21 6.88,4.49 6.84,4.78 6.74,5.05 6.63,5.33 6.47,5.57 6.30,5.80 6.08,6.00 5.86,6.19 5.60,6.32 5.34,6.46 3.10,8.54 0.86,10.63 0.00,11.46 -0.85,12.29 -1.35,12.83 -1.84,13.37 -2.08,13.53 -2.32,13.69 -2.60,13.79 -2.87,13.88 -3.16,13.91 -3.44,13.94 -3.73,13.90 -4.02,13.86 -4.29,13.76 -4.55,13.65 -4.79,13.48 -5.02,13.31 -5.21,13.09 -5.40,12.88 -5.53,12.62 -5.66,12.36 -5.73,12.08 -5.79,11.79 -5.79,11.51 -5.78,11.22 -5.71,10.94 -5.63,10.66 -5.50,10.40 -5.36,10.15 -5.16,9.93 -4.97,9.72 -4.12,9.04 -3.28,8.36 -1.86,7.50 -0.44,6.64 1.65,5.80 3.76,4.96 5.78,4.25 7.80,3.54 9.21,3.02 10.61,2.49 11.49,2.10 12.38,1.72 12.65,1.66 12.92,1.60 13.19,1.62 13.46,1.63 13.73,1.70 13.99,1.78 14.23,1.91 14.47,2.05 14.67,2.24 14.86,2.43 15.01,2.66 15.16,2.89 15.25,3.15 15.33,3.41 15.36,3.69 15.38,3.96 15.34,4.23 15.29,4.50 15.18,4.75 15.08,5.01 14.91,5.23 14.75,5.45 14.54,5.62 14.32,5.80 14.08,5.91 13.83,6.03 12.84,7.88 11.85,9.74 11.14,10.65 10.42,11.56 9.87,12.36 9.31,13.17 9.09,13.40 8.86,13.62 8.58,13.79 8.31,13.96 8.00,14.05 7.69,14.15 7.37,14.17 7.05,14.19 6.73,14.13 6.41,14.07 6.12,13.94 5.83,13.81 5.57,13.61 5.32,13.41 5.12,13.16 4.92,12.91 4.79,12.61 4.66,12.32 4.60,12.00 4.54,11.69 4.56,11.36 4.58,11.04 4.67,10.73 4.77,10.43 4.94,10.15 5.10,9.87 6.53,8.84 7.97,7.80 9.84,7.00 11.71,6.19 13.81,5.42 15.91,4.64 17.59,4.03 19.26,3.42 20.44,2.91 21.62,2.40 21.90,2.34 22.19,2.28 22.47,2.29 22.76,2.30 23.04,2.38 23.32,2.46 23.57,2.60 23.82,2.75 24.03,2.95 24.24,3.14 24.39,3.39 24.55,3.63 24.64,3.91 24.74,4.18 24.76,4.47 24.78,4.76 24.74,5.04 24.69,5.33 24.58,5.59 24.47,5.86 24.30,6.09 24.12,6.32 23.90,6.51 23.68,6.69 23.42,6.82 23.16,6.94 20.52,9.08 17.88,11.22 16.83,12.08 15.77,12.95 15.33,13.38 14.89,13.81 14.65,13.95 14.41,14.09 14.14,14.17 13.87,14.25 13.59,14.27 13.31,14.28 13.04,14.23 12.76,14.18 12.51,14.06 12.26,13.94 12.04,13.77 11.82,13.59 11.65,13.37 11.48,13.15 11.37,12.90 11.26,12.64 11.21,12.37 11.16,12.09 11.18,11.81 11.20,11.53 11.29,11.27 11.37,11.00 11.52,10.76 11.66,10.53 11.86,10.33 12.06,10.13 14.00,8.85 15.93,7.57 18.22,6.57 20.51,5.57 22.48,4.66 24.45,3.76 27.87,3.96 31.29,4.17 31.22,4.47 31.15,4.76 31.00,5.02 30.84,5.28 30.61,5.48 30.38,5.67 30.10,5.79 29.81,5.90 29.51,5.91 29.21,5.93 28.92,5.85 28.62,5.77 28.37,5.60 28.12,5.43 27.94,5.18 27.75,4.94 27.66,4.65 27.56,4.37 27.56,4.06 27.56,3.76 27.66,3.47 27.76,3.19 27.94,2.94 28.13,2.70 28.38,2.53 28.63,2.36 28.92,2.28 29.21,2.20 29.52,2.22 29.82,2.24 30.10,2.35 30.38,2.46 30.61,2.66 30.84,2.85 31.00,3.11 31.16,3.38 31.22,3.67 31.29,3.97 31.25,4.27 31.22,4.57 31.09,4.85 30.96,5.12 30.75,5.34 30.55,5.56 30.28,5.70 30.01,5.84 29.71,5.89 29.41,5.94 29.11,5.89 28.81,5.84 28.54,5.70 28.28,5.56 28.07,5.34 27.86,5.12 27.73,4.84 27.61,4.56 27.57,4.26 27.54,3.96 27.54,3.96 27.54,3.96 26.85,5.51 26.16,7.06 24.26,8.16 22.36,9.25 20.33,10.41 18.30,11.58 16.59,12.69 14.89,13.81 14.65,13.95 14.41,14.09 14.14,14.17 13.87,14.25 13.59,14.27 13.31,14.28 13.04,14.23 12.77,14.18 12.51,14.06 12.26,13.94 12.04,13.77 11.82,13.59 11.65,13.37 11.48,13.15 11.37,12.90 11.26,12.64 11.21,12.37 11.16,12.09 11.18,11.81 11.20,11.53 11.29,11.27 11.37,11.00 11.52,10.76 11.66,10.53 11.86,10.33 12.06,10.13 12.58,9.80 13.10,9.47 14.20,8.69 15.30,7.90 17.81,6.09 20.33,4.27 20.97,3.34 21.62,2.40 21.90,2.34 22.19,2.28 22.47,2.29 22.76,2.30 23.04,2.38 23.32,2.46 23.57,2.60 23.82,2.75 24.03,2.94 24.24,3.14 24.39,3.39 24.55,3.63 24.64,3.91 24.74,4.18 24.76,4.47 24.78,4.76 24.74,5.04 24.69,5.33 24.58,5.59 24.47,5.86 24.30,6.09 24.12,6.32 23.90,6.51 23.68,6.69 23.42,6.82 23.16,6.94 21.97,7.22 20.78,7.50 19.26,8.09 17.73,8.68 15.86,9.69 13.99,10.70 11.65,11.94 9.31,13.17 9.09,13.40 8.86,13.62 8.58,13.79 8.31,13.96 8.00,14.05 7.69,14.15 7.37,14.17 7.05,14.19 6.73,14.13 6.41,14.07 6.12,13.94 5.83,13.81 5.57,13.61 5.32,13.41 5.12,13.16 4.92,12.91 4.79,12.61 4.66,12.32 4.60,12.00 4.54,11.69 4.56,11.36 4.58,11.04 4.67,10.73 4.77,10.43 4.94,10.15 5.10,9.87 5.85,9.11 6.60,8.35 7.34,7.53 8.07,6.71 9.43,5.15 10.79,3.60 11.58,2.66 12.38,1.72 12.65,1.66 12.91,1.60 13.19,1.61 13.46,1.63 13.73,1.70 13.99,1.78 14.23,1.91 14.47,2.05 14.67,2.24 14.86,2.43 15.01,2.66 15.16,2.89 15.25,3.15 15.33,3.41 15.36,3.69 15.38,3.96 15.34,4.23 15.29,4.50 15.18,4.75 15.08,5.01 14.91,5.23 14.75,5.45 14.54,5.62 14.32,5.80 14.08,5.91 13.83,6.03 12.87,6.21 11.91,6.39 10.59,6.78 9.26,7.17 7.43,8.01 5.59,8.85 3.85,9.83 2.12,10.80 0.13,12.09 -1.84,13.37 -2.08,13.53 -2.32,13.69 -2.60,13.79 -2.87,13.88 -3.16,13.91 -3.44,13.94 -3.73,13.90 -4.02,13.86 -4.28,13.76 -4.55,13.65 -4.79,13.48 -5.02,13.31 -5.21,13.10 -5.40,12.88 -5.53,12.62 -5.66,12.36 -5.73,12.08 -5.79,11.79 -5.79,11.51 -5.78,11.22 -5.71,10.94 -5.63,10.66 -5.50,10.40 -5.36,10.15 -5.16,9.94 -4.97,9.72 -4.38,9.32 -3.80,8.92 -2.87,8.19 -1.95,7.46 -0.55,6.03 0.85,4.60 2.25,3.27 3.65,1.93 3.93,1.86 4.22,1.80 4.51,1.80 4.80,1.80 5.08,1.87 5.36,1.94 5.62,2.08 5.88,2.21 6.10,2.41 6.31,2.60 6.48,2.84 6.64,3.08 6.74,3.35 6.85,3.63 6.88,3.92 6.91,4.20 6.88,4.49 6.84,4.78 6.74,5.05 6.63,5.33 6.47,5.56 6.30,5.80 6.08,6.00 5.86,6.19 5.60,6.32 5.34,6.46 4.69,6.62 4.04,6.79 3.00,7.11 1.97,7.44 0.24,8.27 -1.49,9.10 -3.12,10.04 -4.75,10.98 -6.25,11.82 -7.76,12.66 -8.01,12.82 -8.27,12.99 -8.55,13.09 -8.84,13.18 -9.14,13.21 -9.44,13.24 -9.74,13.20 -10.04,13.15 -10.32,13.04 -10.60,12.92 -10.85,12.74 -11.09,12.56 -11.29,12.33 -11.48,12.10 -11.61,11.82 -11.75,11.55 -11.81,11.26 -11.88,10.96 -11.87,10.66 -11.86,10.35 -11.78,10.06 -11.70,9.77 -11.55,9.51 -11.40,9.24 -11.19,9.02 -10.99,8.80 -10.31,8.31 -9.63,7.82 -8.65,7.06 -7.66,6.30 -6.44,5.26 -5.21,4.23 -3.93,3.51 -2.65,2.79 -1.88,1.88 -1.12,0.97 -0.86,0.94 -0.60,0.92 -0.33,0.96 -0.07,1.00 0.16,1.10 0.41,1.20 0.62,1.35 0.83,1.51 1.00,1.71 1.17,1.91 1.29,2.15 1.41,2.39 1.46,2.65 1.52,2.90 1.51,3.17 1.51,3.43 1.44,3.69 1.37,3.94 1.24,4.17 1.11,4.40 0.93,4.60 0.75,4.79 0.53,4.94 0.31,5.08 0.06,5.17 -0.18,5.25 -1.33,5.37 -2.47,5.48 -3.96,5.80 -5.45,6.12 -7.65,6.89 -9.85,7.65 -12.45,8.75 -15.05,9.84 -17.02,10.96 -18.98,12.08 -21.05,13.63 -23.12,15.18 -23.31,15.45 -23.51,15.72 -23.76,15.93 -24.01,16.15 -24.31,16.29 -24.61,16.44 -24.93,16.51 -25.25,16.58 -25.59,16.58 -25.92,16.57 -26.24,16.48 -26.56,16.40 -26.85,16.24 -27.14,16.07 -27.38,15.85 -27.62,15.62 -27.80,15.35 -27.98,15.07 -28.09,14.76 -28.20,14.45 -28.24,14.12 -28.27,13.79 -28.22,13.46 -28.17,13.13 -28.05,12.82 -27.92,12.52 -27.63,12.15 -27.34,11.78 -26.56,11.02 -25.79,10.26 -24.71,9.56 -23.63,8.86 -22.59,8.32 -21.54,7.77 -20.46,7.10 -19.38,6.43 -17.86,5.30 -16.33,4.18 -14.65,2.78 -12.97,1.38 -11.27,-0.18 -9.57,-1.75 -9.34,-1.89 -9.11,-2.04 -8.85,-2.13 -8.59,-2.22 -8.31,-2.24 -8.04,-2.27 -7.77,-2.22 -7.50,-2.18 -7.25,-2.08 -6.99,-1.97 -6.77,-1.81 -6.55,-1.64 -6.38,-1.43 -6.21,-1.22 -6.09,-0.97 -5.97,-0.73 -5.91,-0.46 -5.85,-0.19 -5.86,0.07 -5.87,0.35 -5.95,0.61 -6.02,0.87 -6.16,1.11 -6.29,1.35 -6.48,1.55 -6.67,1.75 -6.67,1.75 L -6.67,1.75 Z"></path></g><g transform="translate(324.8605586418533 141.20191856790848) rotate(0 -8.22105007230796 27.085842373660796)" stroke="none" fill="#ededed"><path d="M -3.11,0.58 Q -3.11,0.58 -3.85,2.70 -4.59,4.82 -5.79,7.80 -6.99,10.78 -8.34,14.08 -9.69,17.39 -10.79,20.20 -11.90,23.00 -12.53,24.81 -13.16,26.61 -13.39,27.71 -13.63,28.82 -13.71,29.67 -13.80,30.53 -13.89,30.75 -13.99,30.98 -14.14,31.18 -14.28,31.37 -14.47,31.53 -14.66,31.68 -14.89,31.79 -15.11,31.89 -15.35,31.94 -15.59,31.99 -15.83,31.98 -16.08,31.97 -16.31,31.90 -16.55,31.84 -16.76,31.71 -16.97,31.59 -17.15,31.42 -17.33,31.25 -17.46,31.04 -17.59,30.84 -17.67,30.60 -17.75,30.37 -17.77,30.13 -17.79,29.88 -17.75,29.64 -17.71,29.40 -16.29,27.44 -14.88,25.48 -13.57,23.98 -12.26,22.49 -11.46,21.39 -10.66,20.30 -8.68,19.52 -6.69,18.75 -6.03,20.20 -5.37,21.65 -5.59,23.22 -5.82,24.79 -6.37,26.58 -6.92,28.38 -7.34,29.75 -7.76,31.12 -8.12,32.30 -8.49,33.48 -8.69,34.72 -8.90,35.96 -10.91,35.11 -12.93,34.25 -12.14,33.20 -11.36,32.14 -10.46,31.24 -9.55,30.34 -8.66,29.54 -7.77,28.75 -5.17,28.82 -2.56,28.89 -2.36,31.28 -2.17,33.67 -2.84,35.54 -3.52,37.42 -4.38,39.92 -5.25,42.43 -5.98,44.90 -6.72,47.36 -7.14,49.17 -7.55,50.99 -7.65,52.43 -7.74,53.88 -7.82,54.14 -7.89,54.40 -8.03,54.64 -8.17,54.87 -8.36,55.06 -8.55,55.26 -8.78,55.40 -9.01,55.55 -9.26,55.63 -9.52,55.71 -9.79,55.73 -10.06,55.75 -10.33,55.71 -10.60,55.66 -10.85,55.56 -11.09,55.45 -11.31,55.28 -11.53,55.12 -11.70,54.91 -11.87,54.70 -11.98,54.45 -12.10,54.21 -12.15,53.94 -12.20,53.68 -12.19,53.40 -12.18,53.13 -11.27,52.30 -10.36,51.46 -8.68,48.86 -6.99,46.25 -5.81,44.54 -4.63,42.83 -3.97,41.64 -3.30,40.45 -2.97,39.91 -2.65,39.37 -2.48,39.17 -2.31,38.98 -2.10,38.82 -1.89,38.67 -1.65,38.58 -1.41,38.48 -1.16,38.44 -0.90,38.40 -0.65,38.43 -0.39,38.45 -0.14,38.54 0.09,38.63 0.31,38.77 0.52,38.91 0.70,39.10 0.87,39.29 1.00,39.51 1.12,39.74 1.19,39.99 1.26,40.24 1.27,40.50 1.27,40.76 1.22,41.01 1.16,41.26 1.05,41.49 0.93,41.72 0.41,43.97 -0.09,46.21 -0.87,48.66 -1.64,51.12 -1.83,51.43 -2.03,51.75 -2.31,51.99 -2.59,52.23 -2.94,52.36 -3.28,52.50 -3.65,52.51 -4.02,52.53 -4.38,52.43 -4.74,52.33 -5.04,52.12 -5.35,51.91 -5.57,51.61 -5.79,51.32 -5.91,50.96 -6.02,50.61 -6.02,50.24 -6.02,49.87 -5.90,49.52 -5.78,49.17 -5.55,48.88 -5.32,48.59 -5.02,48.38 -4.71,48.18 -4.35,48.08 -3.99,47.98 -3.62,48.00 -3.25,48.03 -2.91,48.17 -2.57,48.31 -2.29,48.55 -2.01,48.79 -1.82,49.11 -1.63,49.43 -1.55,49.79 -1.48,50.15 -1.52,50.52 -1.56,50.88 -1.72,51.22 -1.88,51.55 -2.13,51.82 -2.39,52.09 -2.72,52.26 -3.05,52.43 -3.41,52.49 -3.78,52.55 -4.14,52.48 -4.51,52.42 -4.83,52.25 -5.16,52.07 -5.41,51.80 -5.66,51.53 -5.82,51.19 -5.97,50.86 -6.01,50.49 -6.04,50.12 -5.96,49.76 -5.88,49.40 -5.88,49.40 -5.88,49.40 -5.15,47.17 -4.42,44.94 -3.99,43.51 -3.56,42.07 -3.10,40.72 -2.65,39.37 -2.48,39.17 -2.31,38.98 -2.10,38.82 -1.89,38.67 -1.65,38.58 -1.41,38.48 -1.16,38.44 -0.90,38.40 -0.65,38.43 -0.39,38.45 -0.14,38.54 0.09,38.63 0.31,38.77 0.52,38.91 0.70,39.10 0.87,39.29 1.00,39.51 1.12,39.74 1.19,39.99 1.26,40.24 1.27,40.50 1.27,40.76 1.22,41.01 1.16,41.26 1.05,41.49 0.93,41.72 0.48,42.14 0.03,42.55 -0.75,43.67 -1.53,44.79 -2.59,46.61 -3.64,48.43 -4.84,50.49 -6.04,52.55 -6.89,53.21 -7.74,53.88 -7.82,54.14 -7.89,54.40 -8.03,54.64 -8.17,54.87 -8.36,55.06 -8.55,55.26 -8.78,55.40 -9.01,55.55 -9.26,55.63 -9.52,55.71 -9.79,55.73 -10.06,55.75 -10.33,55.71 -10.60,55.66 -10.85,55.56 -11.09,55.45 -11.31,55.28 -11.53,55.12 -11.70,54.91 -11.87,54.70 -11.98,54.45 -12.10,54.21 -12.15,53.94 -12.20,53.68 -12.19,53.40 -12.18,53.13 -12.06,52.70 -11.94,52.26 -11.69,51.23 -11.43,50.19 -11.08,48.29 -10.73,46.38 -10.24,43.80 -9.74,41.21 -9.21,38.57 -8.67,35.93 -7.70,33.74 -6.74,31.54 -5.18,32.11 -3.63,32.67 -4.58,33.50 -5.53,34.32 -6.38,35.19 -7.23,36.06 -8.72,37.22 -10.21,38.38 -12.15,36.67 -14.08,34.97 -13.61,33.43 -13.13,31.90 -12.72,30.78 -12.30,29.66 -11.87,28.39 -11.45,27.11 -10.44,24.71 -9.43,22.30 -8.36,22.63 -7.30,22.96 -8.19,24.01 -9.08,25.06 -10.26,26.66 -11.45,28.26 -12.62,29.39 -13.80,30.53 -13.89,30.75 -13.99,30.98 -14.14,31.18 -14.28,31.37 -14.47,31.53 -14.66,31.68 -14.89,31.79 -15.11,31.89 -15.35,31.94 -15.59,31.99 -15.83,31.98 -16.08,31.97 -16.31,31.90 -16.55,31.84 -16.76,31.71 -16.97,31.59 -17.15,31.42 -17.33,31.25 -17.46,31.04 -17.59,30.84 -17.67,30.60 -17.75,30.37 -17.77,30.13 -17.79,29.88 -17.75,29.64 -17.71,29.40 -17.36,28.57 -17.00,27.75 -16.54,26.65 -16.08,25.56 -15.41,23.74 -14.73,21.93 -13.69,19.08 -12.65,16.23 -11.40,12.91 -10.15,9.58 -9.13,6.67 -8.10,3.76 -7.54,1.58 -6.98,-0.58 -6.88,-0.80 -6.78,-1.03 -6.63,-1.22 -6.48,-1.41 -6.29,-1.57 -6.10,-1.72 -5.88,-1.82 -5.66,-1.92 -5.42,-1.97 -5.18,-2.01 -4.94,-2.00 -4.69,-1.99 -4.46,-1.92 -4.23,-1.85 -4.02,-1.72 -3.81,-1.60 -3.64,-1.43 -3.46,-1.25 -3.33,-1.05 -3.21,-0.84 -3.13,-0.61 -3.06,-0.37 -3.04,-0.13 -3.02,0.10 -3.07,0.34 -3.11,0.58 -3.11,0.58 L -3.11,0.58 Z"></path></g></svg>