<svg version="1.1" xmlns="http://www.w3.org/2000/svg" viewBox="0 0 789.183189401147 223.0596205917929" width="789.183189401147" height="223.0596205917929">
  <!-- svg-source:excalidraw -->
  
  <defs>
    <style>
      font-family: "Fira Code"

    </style>
  </defs>
  <g stroke-linecap="round" transform="translate(74.58943684895814 20.451756795247462) rotate(0 50.45430501302087 26.813120524088518)"><path d="M1.7 5.45 C1.7 5.45, 1.7 5.45, 1.7 5.45 M1.7 5.45 C1.7 5.45, 1.7 5.45, 1.7 5.45 M1.44 11.85 C4 8.9, 6.56 5.96, 9.31 2.79 M1.44 11.85 C3.66 9.29, 5.88 6.73, 9.31 2.79 M1.83 17.49 C6.36 12.29, 10.88 7.08, 15.61 1.64 M1.83 17.49 C6.03 12.66, 10.24 7.82, 15.61 1.64 M1.57 23.89 C5.55 19.31, 9.54 14.72, 20.6 2 M1.57 23.89 C6.45 18.27, 11.34 12.66, 20.6 2 M1.96 29.53 C10.04 20.25, 18.11 10.96, 26.24 1.61 M1.96 29.53 C9.29 21.11, 16.61 12.68, 26.24 1.61 M1.7 35.93 C12.88 23.07, 24.06 10.21, 31.23 1.97 M1.7 35.93 C12.11 23.96, 22.52 11.98, 31.23 1.97 M0.13 43.84 C14.52 27.28, 28.91 10.73, 36.87 1.57 M0.13 43.84 C10.14 32.33, 20.14 20.82, 36.87 1.57 M1.84 47.97 C14.87 32.98, 27.9 17.99, 41.86 1.93 M1.84 47.97 C16.97 30.56, 32.1 13.16, 41.86 1.93 M4.86 50.6 C17.28 36.31, 29.7 22.02, 47.5 1.54 M4.86 50.6 C15.27 38.62, 25.68 26.64, 47.5 1.54 M7.87 53.22 C21.42 37.64, 34.96 22.06, 52.49 1.9 M7.87 53.22 C17.03 42.69, 26.18 32.17, 52.49 1.9 M12.86 53.58 C27.7 36.51, 42.55 19.43, 58.13 1.51 M12.86 53.58 C29.1 34.9, 45.34 16.21, 58.13 1.51 M15.88 56.2 C26.61 43.86, 37.34 31.52, 63.12 1.87 M15.88 56.2 C28.61 41.56, 41.35 26.91, 63.12 1.87 M21.52 55.81 C31.38 44.47, 41.25 33.12, 68.76 1.47 M21.52 55.81 C39.07 35.62, 56.62 15.43, 68.76 1.47 M26.51 56.17 C44.06 35.98, 61.61 15.79, 73.75 1.83 M26.51 56.17 C39.33 41.42, 52.16 26.67, 73.75 1.83 M32.15 55.78 C48.8 36.63, 65.44 17.48, 79.39 1.44 M32.15 55.78 C48.78 36.65, 65.41 17.52, 79.39 1.44 M37.14 56.14 C50.04 41.29, 62.95 26.45, 84.38 1.8 M37.14 56.14 C50.13 41.2, 63.11 26.26, 84.38 1.8 M42.78 55.74 C61.36 34.37, 79.94 13, 90.68 0.65 M42.78 55.74 C61.17 34.59, 79.55 13.44, 90.68 0.65 M47.77 56.1 C58.6 43.65, 69.43 31.19, 95.01 1.76 M47.77 56.1 C57.6 44.8, 67.42 33.49, 95.01 1.76 M53.41 55.71 C64.82 42.59, 76.22 29.47, 98.03 4.39 M53.41 55.71 C65.23 42.12, 77.04 28.53, 98.03 4.39 M58.4 56.07 C75.37 36.55, 92.34 17.03, 101.04 7.01 M58.4 56.07 C73.88 38.26, 89.37 20.44, 101.04 7.01 M64.04 55.67 C75.71 42.25, 87.38 28.83, 102.1 11.9 M64.04 55.67 C71.9 46.63, 79.76 37.59, 102.1 11.9 M69.03 56.03 C79.01 44.55, 88.99 33.07, 102.49 17.54 M69.03 56.03 C78.95 44.63, 88.86 33.22, 102.49 17.54 M74.67 55.64 C80.27 49.2, 85.86 42.77, 102.23 23.94 M74.67 55.64 C83.9 45.03, 93.12 34.41, 102.23 23.94 M79.66 56 C86.79 47.8, 93.92 39.59, 102.62 29.58 M79.66 56 C87.19 47.33, 94.73 38.67, 102.62 29.58 M85.3 55.6 C89.02 51.33, 92.73 47.06, 102.36 35.98 M85.3 55.6 C91.95 47.96, 98.59 40.32, 102.36 35.98 M90.29 55.96 C94.23 51.43, 98.17 46.89, 100.79 43.89 M90.29 55.96 C92.84 53.03, 95.39 50.1, 100.79 43.89" stroke="#fae6e6" stroke-width="0.5" fill="none"></path><path d="M13.41 0 M13.41 0 C38.23 0, 63.05 0, 87.5 0 M13.41 0 C30.05 0, 46.7 0, 87.5 0 M87.5 0 C96.44 0, 100.91 4.47, 100.91 13.41 M87.5 0 C96.44 0, 100.91 4.47, 100.91 13.41 M100.91 13.41 C100.91 19.09, 100.91 24.78, 100.91 40.22 M100.91 13.41 C100.91 21.7, 100.91 29.99, 100.91 40.22 M100.91 40.22 C100.91 49.16, 96.44 53.63, 87.5 53.63 M100.91 40.22 C100.91 49.16, 96.44 53.63, 87.5 53.63 M87.5 53.63 C69.38 53.63, 51.25 53.63, 13.41 53.63 M87.5 53.63 C71.78 53.63, 56.05 53.63, 13.41 53.63 M13.41 53.63 C4.47 53.63, 0 49.16, 0 40.22 M13.41 53.63 C4.47 53.63, 0 49.16, 0 40.22 M0 40.22 C0 33.56, 0 26.91, 0 13.41 M0 40.22 C0 33.71, 0 27.21, 0 13.41 M0 13.41 C0 4.47, 4.47 0, 13.41 0 M0 13.41 C0 4.47, 4.47 0, 13.41 0" stroke="#c92a2a" stroke-width="1" fill="none"></path></g><g transform="translate(87.04878743489553 26.044652303059934) rotate(0 38 19)"><text x="0" y="15" font-family="Cascadia, Segoe UI Emoji" font-size="16px" fill="#c92a2a" text-anchor="start" style="white-space: pre;" direction="ltr">Vue 2 </text><text x="0" y="34" font-family="Cascadia, Segoe UI Emoji" font-size="16px" fill="#c92a2a" text-anchor="start" style="white-space: pre;" direction="ltr">codebase</text></g><g stroke-linecap="round" transform="translate(261.56815592447936 20.67669169108089) rotate(0 32.7781982421875 26.813120524088518)"><path d="M1.7 5.45 C1.7 5.45, 1.7 5.45, 1.7 5.45 M1.7 5.45 C1.7 5.45, 1.7 5.45, 1.7 5.45 M1.44 11.85 C4.49 8.34, 7.53 4.83, 9.31 2.79 M1.44 11.85 C4.56 8.25, 7.69 4.66, 9.31 2.79 M1.83 17.49 C5.76 12.97, 9.69 8.46, 15.61 1.64 M1.83 17.49 C5.91 12.8, 9.99 8.1, 15.61 1.64 M1.57 23.89 C8.88 15.48, 16.19 7.08, 20.6 2 M1.57 23.89 C8.71 15.67, 15.85 7.46, 20.6 2 M1.96 29.53 C7.53 23.13, 13.1 16.72, 26.24 1.61 M1.96 29.53 C9.75 20.57, 17.54 11.62, 26.24 1.61 M1.7 35.93 C12.53 23.47, 23.36 11.02, 31.23 1.97 M1.7 35.93 C9.93 26.47, 18.16 17, 31.23 1.97 M0.13 43.84 C9.18 33.43, 18.23 23.01, 36.87 1.57 M0.13 43.84 C11.23 31.07, 22.33 18.3, 36.87 1.57 M2.49 47.22 C11.36 37.02, 20.22 26.83, 41.86 1.93 M2.49 47.22 C14.23 33.72, 25.96 20.22, 41.86 1.93 M4.2 51.35 C15.73 38.08, 27.27 24.81, 46.84 2.29 M4.2 51.35 C15.89 37.9, 27.58 24.45, 46.84 2.29 M7.87 53.22 C24.07 34.59, 40.27 15.95, 52.49 1.9 M7.87 53.22 C20.61 38.57, 33.35 23.92, 52.49 1.9 M11.55 55.09 C20.88 44.36, 30.2 33.63, 58.13 1.51 M11.55 55.09 C24.67 39.99, 37.79 24.9, 58.13 1.51 M17.19 54.7 C34.98 34.24, 52.76 13.78, 61.8 3.38 M17.19 54.7 C28.51 41.67, 39.83 28.65, 61.8 3.38 M22.18 55.06 C39.15 35.53, 56.13 16, 64.82 6 M22.18 55.06 C34.15 41.29, 46.11 27.52, 64.82 6 M27.82 54.66 C38.21 42.71, 48.6 30.76, 67.19 9.38 M27.82 54.66 C38.71 42.13, 49.6 29.61, 67.19 9.38 M32.81 55.02 C46.39 39.4, 59.98 23.77, 67.58 15.02 M32.81 55.02 C41.08 45.51, 49.34 36, 67.58 15.02 M38.45 54.63 C47.25 44.5, 56.06 34.38, 67.32 21.42 M38.45 54.63 C49.68 41.71, 60.91 28.8, 67.32 21.42 M43.44 54.99 C52.39 44.69, 61.33 34.4, 67.71 27.06 M43.44 54.99 C49.04 48.54, 54.64 42.1, 67.71 27.06 M49.08 54.59 C56.1 46.52, 63.11 38.45, 67.45 33.46 M49.08 54.59 C54.34 48.54, 59.6 42.49, 67.45 33.46 M54.07 54.95 C57.83 50.63, 61.59 46.3, 67.19 39.86 M54.07 54.95 C58.64 49.7, 63.21 44.44, 67.19 39.86" stroke="#fae6e6" stroke-width="0.5" fill="none"></path><path d="M13.41 0 M13.41 0 C27.7 0, 42 0, 52.15 0 M13.41 0 C22.14 0, 30.87 0, 52.15 0 M52.15 0 C61.09 0, 65.56 4.47, 65.56 13.41 M52.15 0 C61.09 0, 65.56 4.47, 65.56 13.41 M65.56 13.41 C65.56 23.43, 65.56 33.44, 65.56 40.22 M65.56 13.41 C65.56 20.51, 65.56 27.6, 65.56 40.22 M65.56 40.22 C65.56 49.16, 61.09 53.63, 52.15 53.63 M65.56 40.22 C65.56 49.16, 61.09 53.63, 52.15 53.63 M52.15 53.63 C39.25 53.63, 26.36 53.63, 13.41 53.63 M52.15 53.63 C39.21 53.63, 26.27 53.63, 13.41 53.63 M13.41 53.63 C4.47 53.63, 0 49.16, 0 40.22 M13.41 53.63 C4.47 53.63, 0 49.16, 0 40.22 M0 40.22 C0 34.62, 0 29.02, 0 13.41 M0 40.22 C0 33.79, 0 27.37, 0 13.41 M0 13.41 C0 4.47, 4.47 0, 13.41 0 M0 13.41 C0 4.47, 4.47 0, 13.41 0" stroke="#c92a2a" stroke-width="1" fill="none"></path></g><g transform="translate(274.02750651041674 26.269587198893362) rotate(0 19.5 19)"><text x="0" y="15" font-family="Cascadia, Segoe UI Emoji" font-size="16px" fill="#c92a2a" text-anchor="start" style="white-space: pre;" direction="ltr">Core</text><text x="0" y="34" font-family="Cascadia, Segoe UI Emoji" font-size="16px" fill="#c92a2a" text-anchor="start" style="white-space: pre;" direction="ltr">deps</text></g><g stroke-linecap="round"><g transform="translate(177.4554646809895 43.57830521673365) rotate(0 41.401357014973996 -0.028278233728944002)"><path d="M0 0 C13.8 -0.01, 69 -0.05, 82.8 -0.06 M0 0 C13.8 -0.01, 69 -0.05, 82.8 -0.06" stroke="#343a40" stroke-width="1" fill="none"></path></g><g transform="translate(177.4554646809895 43.57830521673365) rotate(0 41.401357014973996 -0.028278233728944002)"><path d="M82.8 -0.06 L69.21 6.29 L69.2 -6.39 L82.8 -0.06" stroke="none" stroke-width="0" fill="#343a40" fill-rule="evenodd"></path><path d="M82.8 -0.06 C78.32 2.04, 73.85 4.13, 69.21 6.29 M82.8 -0.06 C80.05 1.23, 77.3 2.51, 69.21 6.29 M69.21 6.29 C69.21 1.54, 69.21 -3.21, 69.2 -6.39 M69.21 6.29 C69.21 1.29, 69.21 -3.71, 69.2 -6.39 M69.2 -6.39 C72.57 -4.82, 75.95 -3.25, 82.8 -0.06 M69.2 -6.39 C74.26 -4.03, 79.31 -1.68, 82.8 -0.06 M82.8 -0.06 C82.8 -0.06, 82.8 -0.06, 82.8 -0.06 M82.8 -0.06 C82.8 -0.06, 82.8 -0.06, 82.8 -0.06" stroke="#343a40" stroke-width="1" fill="none"></path></g></g><g transform="translate(191.3024902343751 10.140864054361884) rotate(0 18.09202067057288 12.276728312174448)"><text x="0" y="10.276728312174447" font-family="Cascadia, Segoe UI Emoji" font-size="10.338297526041641px" fill="#343a40" text-anchor="start" style="white-space: pre;" direction="ltr">update</text><text x="0" y="22.553456624348893" font-family="Cascadia, Segoe UI Emoji" font-size="10.338297526041641px" fill="#343a40" text-anchor="start" style="white-space: pre;" direction="ltr">v3.x</text></g><g stroke-linecap="round" transform="translate(442.1319173177087 27.29033915201839) rotate(0 45.968994140625114 17.07369995117186)"><path d="M2.27 1.98 C2.27 1.98, 2.27 1.98, 2.27 1.98 M2.27 1.98 C2.27 1.98, 2.27 1.98, 2.27 1.98 M1.35 9.13 C4.34 5.69, 7.33 2.25, 9.23 0.07 M1.35 9.13 C3.17 7.04, 4.98 4.96, 9.23 0.07 M1.09 15.53 C5.13 10.88, 9.16 6.24, 14.21 0.43 M1.09 15.53 C3.97 12.21, 6.85 8.9, 14.21 0.43 M1.49 21.17 C7.7 14.02, 13.91 6.88, 19.86 0.04 M1.49 21.17 C8.57 13.02, 15.66 4.87, 19.86 0.04 M1.23 27.57 C8.65 19.03, 16.06 10.5, 24.84 0.4 M1.23 27.57 C9.87 17.63, 18.51 7.69, 24.84 0.4 M2.28 32.45 C10.58 22.9, 18.89 13.35, 30.49 0 M2.28 32.45 C9.15 24.54, 16.03 16.63, 30.49 0 M5.95 34.32 C11.89 27.49, 17.83 20.66, 35.47 0.36 M5.95 34.32 C16.42 22.28, 26.89 10.24, 35.47 0.36 M10.28 35.44 C21.34 22.72, 32.39 10.01, 40.46 0.72 M10.28 35.44 C21.97 22, 33.65 8.55, 40.46 0.72 M15.27 35.8 C26.96 22.36, 38.64 8.91, 46.1 0.33 M15.27 35.8 C27.23 22.04, 39.19 8.28, 46.1 0.33 M20.91 35.4 C27.92 27.35, 34.92 19.29, 51.09 0.69 M20.91 35.4 C28.85 26.28, 36.79 17.15, 51.09 0.69 M25.9 35.76 C37.29 22.67, 48.67 9.57, 56.73 0.29 M25.9 35.76 C37.69 22.21, 49.47 8.65, 56.73 0.29 M31.54 35.37 C38.53 27.34, 45.51 19.3, 61.72 0.65 M31.54 35.37 C40.05 25.58, 48.57 15.79, 61.72 0.65 M36.53 35.73 C45.91 24.94, 55.29 14.15, 67.36 0.26 M36.53 35.73 C44.8 26.22, 53.07 16.7, 67.36 0.26 M42.17 35.34 C50.15 26.15, 58.13 16.97, 72.35 0.62 M42.17 35.34 C51.81 24.25, 61.45 13.16, 72.35 0.62 M47.16 35.7 C54.17 27.64, 61.17 19.58, 78 0.22 M47.16 35.7 C56.11 25.4, 65.06 15.11, 78 0.22 M52.8 35.3 C61.83 24.92, 70.85 14.54, 83.64 -0.17 M52.8 35.3 C59.41 27.7, 66.01 20.1, 83.64 -0.17 M57.79 35.66 C69.64 22.03, 81.49 8.4, 87.97 0.94 M57.79 35.66 C67.06 25, 76.32 14.34, 87.97 0.94 M63.43 35.27 C69.99 27.72, 76.55 20.17, 90.99 3.57 M63.43 35.27 C70.86 26.72, 78.29 18.18, 90.99 3.57 M68.42 35.63 C77.05 25.7, 85.69 15.76, 92.04 8.46 M68.42 35.63 C75.3 27.72, 82.17 19.8, 92.04 8.46 M74.06 35.23 C79.1 29.44, 84.13 23.66, 91.78 14.86 M74.06 35.23 C80.31 28.05, 86.56 20.86, 91.78 14.86 M79.05 35.59 C83.07 30.97, 87.08 26.35, 91.52 21.25 M79.05 35.59 C81.91 32.3, 84.77 29.01, 91.52 21.25 M84.69 35.2 C87.15 32.37, 89.61 29.54, 91.25 27.65 M84.69 35.2 C87.28 32.22, 89.87 29.24, 91.25 27.65" stroke="#fae6e6" stroke-width="0.5" fill="none"></path><path d="M8.54 0 M8.54 0 C34.71 0, 60.88 0, 83.4 0 M8.54 0 C25.21 0, 41.89 0, 83.4 0 M83.4 0 C89.09 0, 91.94 2.85, 91.94 8.54 M83.4 0 C89.09 0, 91.94 2.85, 91.94 8.54 M91.94 8.54 C91.94 13.16, 91.94 17.77, 91.94 25.61 M91.94 8.54 C91.94 13.78, 91.94 19.02, 91.94 25.61 M91.94 25.61 C91.94 31.3, 89.09 34.15, 83.4 34.15 M91.94 25.61 C91.94 31.3, 89.09 34.15, 83.4 34.15 M83.4 34.15 C66.36 34.15, 49.31 34.15, 8.54 34.15 M83.4 34.15 C61.37 34.15, 39.35 34.15, 8.54 34.15 M8.54 34.15 C2.85 34.15, 0 31.3, 0 25.61 M8.54 34.15 C2.85 34.15, 0 31.3, 0 25.61 M0 25.61 C0 20.79, 0 15.96, 0 8.54 M0 25.61 C0 21.91, 0 18.22, 0 8.54 M0 8.54 C0 2.85, 2.85 0, 8.54 0 M0 8.54 C0 2.85, 2.85 0, 8.54 0" stroke="#c92a2a" stroke-width="1" fill="none"></path></g><g transform="translate(454.5912679036463 32.88323465983086) rotate(0 33.49999999999994 9.5)"><text x="0" y="15" font-family="Cascadia, Segoe UI Emoji" font-size="16px" fill="#c92a2a" text-anchor="start" style="white-space: pre;" direction="ltr">App.vue</text></g><g stroke-linecap="round"><g transform="translate(329.36210123697924 42.03840637207032) rotate(0 53.81150309244799 0.5315968615382793)"><path d="M0 0 C17.94 0.18, 89.69 0.89, 107.62 1.06 M0 0 C17.94 0.18, 89.69 0.89, 107.62 1.06" stroke="#343a40" stroke-width="1" fill="none"></path></g><g transform="translate(329.36210123697924 42.03840637207032) rotate(0 53.81150309244799 0.5315968615382793)"><path d="M107.62 1.06 L93.97 7.27 L94.09 -5.41 L107.62 1.06" stroke="none" stroke-width="0" fill="#343a40" fill-rule="evenodd"></path><path d="M107.62 1.06 C104.28 2.58, 100.94 4.1, 93.97 7.27 M107.62 1.06 C104.09 2.67, 100.55 4.28, 93.97 7.27 M93.97 7.27 C93.99 4.43, 94.02 1.6, 94.09 -5.41 M93.97 7.27 C94.01 2.75, 94.06 -1.77, 94.09 -5.41 M94.09 -5.41 C98.14 -3.47, 102.18 -1.54, 107.62 1.06 M94.09 -5.41 C98 -3.54, 101.91 -1.67, 107.62 1.06 M107.62 1.06 C107.62 1.06, 107.62 1.06, 107.62 1.06 M107.62 1.06 C107.62 1.06, 107.62 1.06, 107.62 1.06" stroke="#343a40" stroke-width="1" fill="none"></path></g></g><g transform="translate(347.42360432942723 10) rotate(0 31 12)"><text x="0" y="10" font-family="Cascadia, Segoe UI Emoji" font-size="10.338297526041641px" fill="#343a40" text-anchor="start" style="white-space: pre;" direction="ltr">migrate</text><text x="0" y="22" font-family="Cascadia, Segoe UI Emoji" font-size="10.338297526041641px" fill="#343a40" text-anchor="start" style="white-space: pre;" direction="ltr">global API</text></g><g stroke-linecap="round" transform="translate(75.4467366536461 135.95354715983083) rotate(0 55.9004313151043 19.952308053081765)"><path d="M2.66 2.31 C2.66 2.31, 2.66 2.31, 2.66 2.31 M2.66 2.31 C2.66 2.31, 2.66 2.31, 2.66 2.31 M0.43 10.97 C2.51 8.58, 4.59 6.18, 7.64 2.67 M0.43 10.97 C2.32 8.79, 4.22 6.61, 7.64 2.67 M0.82 16.61 C4.61 12.26, 8.39 7.9, 13.29 2.27 M0.82 16.61 C5.65 11.05, 10.49 5.49, 13.29 2.27 M0.56 23.01 C7.49 15.04, 14.41 7.07, 18.27 2.63 M0.56 23.01 C4.5 18.48, 8.44 13.95, 18.27 2.63 M0.95 28.65 C9.54 18.78, 18.12 8.9, 23.26 2.99 M0.95 28.65 C7.56 21.06, 14.16 13.46, 23.26 2.99 M1.35 34.3 C7.32 27.43, 13.29 20.56, 28.9 2.6 M1.35 34.3 C6.98 27.82, 12.62 21.34, 28.9 2.6 M3.05 38.43 C14.24 25.56, 25.43 12.69, 33.89 2.96 M3.05 38.43 C9.62 30.88, 16.18 23.33, 33.89 2.96 M6.73 40.3 C19.54 25.56, 32.35 10.82, 39.53 2.56 M6.73 40.3 C18.51 26.75, 30.29 13.2, 39.53 2.56 M11.06 41.42 C17.94 33.5, 24.83 25.58, 44.52 2.93 M11.06 41.42 C19.67 31.51, 28.29 21.6, 44.52 2.93 M16.7 41.02 C30.05 25.66, 43.4 10.31, 50.16 2.53 M16.7 41.02 C23.41 33.3, 30.12 25.58, 50.16 2.53 M21.69 41.38 C31.49 30.1, 41.3 18.83, 55.15 2.89 M21.69 41.38 C33.86 27.39, 46.02 13.39, 55.15 2.89 M27.33 40.99 C37.01 29.86, 46.68 18.73, 60.79 2.5 M27.33 40.99 C37.6 29.18, 47.86 17.37, 60.79 2.5 M32.32 41.35 C42.85 29.23, 53.38 17.12, 65.78 2.86 M32.32 41.35 C45 26.76, 57.68 12.18, 65.78 2.86 M37.96 40.95 C50.32 26.74, 62.68 12.52, 71.42 2.46 M37.96 40.95 C45.33 32.48, 52.69 24.01, 71.42 2.46 M42.95 41.31 C55.4 26.99, 67.85 12.67, 76.41 2.82 M42.95 41.31 C55.17 27.26, 67.39 13.2, 76.41 2.82 M48.59 40.92 C58.92 29.04, 69.24 17.17, 82.05 2.43 M48.59 40.92 C60.2 27.57, 71.8 14.22, 82.05 2.43 M53.58 41.28 C62.86 30.61, 72.13 19.94, 87.04 2.79 M53.58 41.28 C63.56 29.8, 73.54 18.32, 87.04 2.79 M59.22 40.88 C67.15 31.77, 75.08 22.65, 92.68 2.39 M59.22 40.88 C67.83 30.99, 76.43 21.09, 92.68 2.39 M64.21 41.24 C72.68 31.5, 81.15 21.76, 97.67 2.75 M64.21 41.24 C76.52 27.08, 88.83 12.92, 97.67 2.75 M69.85 40.85 C78.22 31.22, 86.6 21.59, 103.97 1.6 M69.85 40.85 C83.01 25.72, 96.16 10.59, 103.97 1.6 M74.84 41.21 C82.66 32.21, 90.48 23.22, 108.3 2.72 M74.84 41.21 C84.15 30.5, 93.45 19.8, 108.3 2.72 M80.48 40.81 C89.49 30.46, 98.49 20.1, 111.98 4.59 M80.48 40.81 C90.89 28.84, 101.3 16.87, 111.98 4.59 M85.47 41.17 C95.26 29.91, 105.05 18.65, 112.37 10.23 M85.47 41.17 C94.8 30.44, 104.13 19.71, 112.37 10.23 M91.11 40.78 C96.81 34.23, 102.51 27.67, 112.11 16.63 M91.11 40.78 C98.56 32.22, 106 23.66, 112.11 16.63 M96.1 41.14 C101.02 35.49, 105.93 29.83, 112.5 22.27 M96.1 41.14 C99.48 37.25, 102.86 33.36, 112.5 22.27 M102.4 39.99 C106.1 35.74, 109.79 31.49, 112.24 28.67 M102.4 39.99 C105.2 36.77, 107.99 33.56, 112.24 28.67" stroke="#fae6e6" stroke-width="0.5" fill="none"></path><path d="M9.98 0 M9.98 0 C38.22 0, 66.47 0, 101.82 0 M9.98 0 C37.74 0, 65.5 0, 101.82 0 M101.82 0 C108.48 0, 111.8 3.33, 111.8 9.98 M101.82 0 C108.48 0, 111.8 3.33, 111.8 9.98 M111.8 9.98 C111.8 16.98, 111.8 23.98, 111.8 29.93 M111.8 9.98 C111.8 15.42, 111.8 20.86, 111.8 29.93 M111.8 29.93 C111.8 36.58, 108.48 39.9, 101.82 39.9 M111.8 29.93 C111.8 36.58, 108.48 39.9, 101.82 39.9 M101.82 39.9 C70.6 39.9, 39.38 39.9, 9.98 39.9 M101.82 39.9 C78.63 39.9, 55.43 39.9, 9.98 39.9 M9.98 39.9 C3.33 39.9, 0 36.58, 0 29.93 M9.98 39.9 C3.33 39.9, 0 36.58, 0 29.93 M0 29.93 C0 23.29, 0 16.66, 0 9.98 M0 29.93 C0 22.35, 0 14.77, 0 9.98 M0 9.98 C0 3.33, 3.33 0, 9.98 0 M0 9.98 C0 3.33, 3.33 0, 9.98 0" stroke="#c92a2a" stroke-width="1" fill="none"></path></g><g transform="translate(84.79367254821477 140.14930643443955) rotate(0 45.5 15)"><text x="0" y="12" font-family="Cascadia, Segoe UI Emoji" font-size="12.003111501004359px" fill="#c92a2a" text-anchor="start" style="white-space: pre;" direction="ltr">Local Plugins</text><text x="0" y="27" font-family="Cascadia, Segoe UI Emoji" font-size="12.003111501004359px" fill="#c92a2a" text-anchor="start" style="white-space: pre;" direction="ltr">(gdl,pds)</text></g><g stroke-linecap="round"><g transform="translate(540.9873860677083 43.022822062174555) rotate(0 -225.4321289062499 60.06302897135416)"><path d="M0 0 C23.71 0.01, 47.41 0.03, 79.77 0.05 M0 0 C28.75 0.02, 57.49 0.03, 79.77 0.05 M79.77 0.05 C79.89 19.1, 80.01 38.16, 80.12 56 M79.77 0.05 C79.88 17.88, 79.99 35.72, 80.12 56 M80.12 56 C-81.27 55.98, -242.65 55.96, -530.99 55.93 M80.12 56 C-143.04 55.98, -366.2 55.95, -530.99 55.93 M-530.99 55.93 C-530.97 72.4, -530.96 88.87, -530.93 120.13 M-530.99 55.93 C-530.97 71.33, -530.96 86.72, -530.93 120.13 M-530.93 120.13 C-507.21 119.83, -483.5 119.53, -471.11 119.38 M-530.93 120.13 C-507.88 119.84, -484.84 119.55, -471.11 119.38" stroke="#343a40" stroke-width="1" fill="none"></path></g><g transform="translate(540.9873860677083 43.022822062174555) rotate(0 -225.4321289062499 60.06302897135416)"><path d="M-471.11 119.38 L-484.62 125.89 L-484.78 113.21 L-471.11 119.38" stroke="none" stroke-width="0" fill="#343a40" fill-rule="evenodd"></path><path d="M-471.11 119.38 C-475.13 121.31, -479.14 123.25, -484.62 125.89 M-471.11 119.38 C-475.98 121.73, -480.85 124.07, -484.62 125.89 M-484.62 125.89 C-484.68 121.57, -484.73 117.25, -484.78 113.21 M-484.62 125.89 C-484.68 121.85, -484.73 117.81, -484.78 113.21 M-484.78 113.21 C-481.17 114.84, -477.56 116.47, -471.11 119.38 M-484.78 113.21 C-479.79 115.46, -474.8 117.72, -471.11 119.38 M-471.11 119.38 C-471.11 119.38, -471.11 119.38, -471.11 119.38 M-471.11 119.38 C-471.11 119.38, -471.11 119.38, -471.11 119.38" stroke="#343a40" stroke-width="1" fill="none"></path></g></g><g stroke-linecap="round" transform="translate(215.74447174449824 135.60917973172852) rotate(0 57.91590732003101 19.26897768964355)"><path d="M2.56 2.23 C2.56 2.23, 2.56 2.23, 2.56 2.23 M2.56 2.23 C2.56 2.23, 2.56 2.23, 2.56 2.23 M0.99 10.14 C3.97 6.7, 6.96 3.27, 9.52 0.33 M0.99 10.14 C4.15 6.51, 7.3 2.88, 9.52 0.33 M0.73 16.53 C4.57 12.12, 8.41 7.7, 15.16 -0.07 M0.73 16.53 C6.44 9.97, 12.14 3.4, 15.16 -0.07 M1.12 22.18 C7.21 15.18, 13.29 8.18, 20.15 0.29 M1.12 22.18 C5.94 16.64, 10.76 11.1, 20.15 0.29 M1.52 27.82 C7.02 21.49, 12.52 15.17, 25.79 -0.1 M1.52 27.82 C10.37 17.64, 19.21 7.46, 25.79 -0.1 M1.26 34.22 C9.45 24.79, 17.65 15.36, 30.78 0.26 M1.26 34.22 C9.79 24.4, 18.32 14.59, 30.78 0.26 M3.62 37.6 C13.02 26.78, 22.42 15.97, 36.42 -0.14 M3.62 37.6 C11.1 29, 18.57 20.4, 36.42 -0.14 M7.29 39.47 C15.37 30.17, 23.45 20.88, 41.41 0.22 M7.29 39.47 C15.04 30.56, 22.78 21.66, 41.41 0.22 M11.63 40.58 C19.7 31.3, 27.77 22.01, 47.05 -0.17 M11.63 40.58 C21.53 29.19, 31.43 17.8, 47.05 -0.17 M17.27 40.19 C28.47 27.3, 39.67 14.41, 52.04 0.19 M17.27 40.19 C28.75 26.98, 40.22 13.78, 52.04 0.19 M22.26 40.55 C32.63 28.62, 43 16.69, 57.68 -0.21 M22.26 40.55 C35.61 25.18, 48.97 9.81, 57.68 -0.21 M27.9 40.15 C37.26 29.39, 46.61 18.63, 62.67 0.15 M27.9 40.15 C37.49 29.12, 47.09 18.08, 62.67 0.15 M32.89 40.51 C42.98 28.91, 53.07 17.3, 68.31 -0.24 M32.89 40.51 C41.48 30.63, 50.07 20.75, 68.31 -0.24 M38.53 40.12 C49.8 27.16, 61.06 14.19, 73.3 0.12 M38.53 40.12 C47.43 29.88, 56.32 19.65, 73.3 0.12 M43.52 40.48 C53.03 29.53, 62.54 18.59, 78.94 -0.28 M43.52 40.48 C56.33 25.73, 69.15 10.99, 78.94 -0.28 M49.16 40.08 C61.14 26.31, 73.11 12.53, 83.93 0.08 M49.16 40.08 C58.74 29.07, 68.31 18.05, 83.93 0.08 M54.15 40.44 C63.51 29.67, 72.87 18.9, 88.92 0.44 M54.15 40.44 C64.05 29.05, 73.96 17.65, 88.92 0.44 M59.79 40.05 C70.17 28.11, 80.55 16.16, 94.56 0.05 M59.79 40.05 C68.63 29.88, 77.46 19.72, 94.56 0.05 M64.78 40.41 C77.75 25.48, 90.73 10.55, 99.55 0.41 M64.78 40.41 C76.11 27.37, 87.45 14.33, 99.55 0.41 M69.76 40.77 C82.72 25.86, 95.68 10.95, 105.19 0.01 M69.76 40.77 C81.3 27.5, 92.83 14.23, 105.19 0.01 M75.41 40.37 C83.03 31.61, 90.65 22.84, 108.87 1.88 M75.41 40.37 C84.21 30.24, 93.02 20.11, 108.87 1.88 M80.39 40.73 C88.3 31.64, 96.2 22.55, 113.85 2.24 M80.39 40.73 C91.69 27.74, 102.98 14.75, 113.85 2.24 M86.04 40.34 C96.33 28.5, 106.62 16.66, 116.22 5.62 M86.04 40.34 C93.24 32.05, 100.45 23.76, 116.22 5.62 M91.02 40.7 C96.56 34.33, 102.11 27.95, 117.27 10.51 M91.02 40.7 C100.25 30.08, 109.48 19.47, 117.27 10.51 M96.67 40.31 C104.44 31.37, 112.21 22.43, 117 16.91 M96.67 40.31 C101.93 34.25, 107.2 28.19, 117 16.91 M101.65 40.67 C106.22 35.41, 110.78 30.16, 116.74 23.31 M101.65 40.67 C106.84 34.7, 112.03 28.73, 116.74 23.31 M107.95 39.52 C110.35 36.76, 112.75 34, 116.48 29.71 M107.95 39.52 C110.46 36.63, 112.97 33.75, 116.48 29.71" stroke="#fae6e6" stroke-width="0.5" fill="none"></path><path d="M9.63 0 M9.63 0 C41.83 0, 74.02 0, 106.2 0 M9.63 0 C38.97 0, 68.3 0, 106.2 0 M106.2 0 C112.62 0, 115.83 3.21, 115.83 9.63 M106.2 0 C112.62 0, 115.83 3.21, 115.83 9.63 M115.83 9.63 C115.83 16.72, 115.83 23.8, 115.83 28.9 M115.83 9.63 C115.83 16.56, 115.83 23.48, 115.83 28.9 M115.83 28.9 C115.83 35.33, 112.62 38.54, 106.2 38.54 M115.83 28.9 C115.83 35.33, 112.62 38.54, 106.2 38.54 M106.2 38.54 C70.34 38.54, 34.48 38.54, 9.63 38.54 M106.2 38.54 C69.12 38.54, 32.05 38.54, 9.63 38.54 M9.63 38.54 C3.21 38.54, 0 35.33, 0 28.9 M9.63 38.54 C3.21 38.54, 0 35.33, 0 28.9 M0 28.9 C0 21.91, 0 14.91, 0 9.63 M0 28.9 C0 21.33, 0 13.75, 0 9.63 M0 9.63 C0 3.21, 3.21 0, 9.63 0 M0 9.63 C0 3.21, 3.21 0, 9.63 0" stroke="#c92a2a" stroke-width="1" fill="none"></path></g><g transform="translate(224.76532622280183 139.66124186100495) rotate(0 50.727569488198014 14.031029858437755)"><text x="0" y="11.031029858437753" font-family="Cascadia, Segoe UI Emoji" font-size="11.592026702065304px" fill="#c92a2a" text-anchor="start" style="white-space: pre;" direction="ltr">Mixins, filters</text><text x="0" y="25.062059716875506" font-family="Cascadia, Segoe UI Emoji" font-size="11.592026702065304px" fill="#c92a2a" text-anchor="start" style="white-space: pre;" direction="ltr">deprecated</text></g><g stroke-linecap="round"><g transform="translate(189.51725221702884 156.66685400052665) rotate(0 14.151533258452389 -0.0026778973936458783)"><path d="M0 0 C7 0, 14 0, 28.3 -0.01 M0 0 C7.3 0, 14.59 0, 28.3 -0.01" stroke="#343a40" stroke-width="1" fill="none"></path></g><g transform="translate(189.51725221702884 156.66685400052665) rotate(0 14.151533258452389 -0.0026778973936458783)"><path d="M28.3 -0.01 L15.48 5.98 L15.48 -5.98 L28.3 -0.01" stroke="none" stroke-width="0" fill="#343a40" fill-rule="evenodd"></path><path d="M28.3 -0.01 C25.13 1.47, 21.96 2.95, 15.48 5.98 M28.3 -0.01 C25 1.54, 21.69 3.08, 15.48 5.98 M15.48 5.98 C15.48 1.2, 15.48 -3.57, 15.48 -5.98 M15.48 5.98 C15.48 2.9, 15.48 -0.17, 15.48 -5.98 M15.48 -5.98 C19.2 -4.25, 22.91 -2.52, 28.3 -0.01 M15.48 -5.98 C20.48 -3.65, 25.48 -1.32, 28.3 -0.01 M28.3 -0.01 C28.3 -0.01, 28.3 -0.01, 28.3 -0.01 M28.3 -0.01 C28.3 -0.01, 28.3 -0.01, 28.3 -0.01" stroke="#343a40" stroke-width="1" fill="none"></path></g></g><g transform="translate(221.118631998698 84.5637817382812) rotate(0 42.580548321759295 14.739420572916686)"><text x="0" y="7.826280381944457" font-family="Cascadia, Segoe UI Emoji" font-size="8.465584180237329px" fill="#343a40" text-anchor="start" style="white-space: pre;" direction="ltr">migrate</text><text x="0" y="17.652560763888914" font-family="Cascadia, Segoe UI Emoji" font-size="8.465584180237329px" fill="#343a40" text-anchor="start" style="white-space: pre;" direction="ltr"></text><text x="0" y="27.47884114583337" font-family="Cascadia, Segoe UI Emoji" font-size="8.465584180237329px" fill="#343a40" text-anchor="start" style="white-space: pre;" direction="ltr">to new plugin API</text></g><g stroke-linecap="round" transform="translate(428.11178662221516 135.4784701434888) rotate(0 68.43155266508319 19.26897768964355)"><path d="M2.56 2.23 C2.56 2.23, 2.56 2.23, 2.56 2.23 M2.56 2.23 C2.56 2.23, 2.56 2.23, 2.56 2.23 M0.99 10.14 C4.03 6.64, 7.07 3.14, 9.52 0.33 M0.99 10.14 C2.74 8.12, 4.49 6.11, 9.52 0.33 M0.73 16.53 C4.39 12.33, 8.04 8.12, 15.16 -0.07 M0.73 16.53 C6.29 10.14, 11.85 3.75, 15.16 -0.07 M1.12 22.18 C5.71 16.9, 10.29 11.63, 20.15 0.29 M1.12 22.18 C6.23 16.31, 11.33 10.44, 20.15 0.29 M1.52 27.82 C9.99 18.08, 18.46 8.33, 25.79 -0.1 M1.52 27.82 C8.15 20.19, 14.78 12.57, 25.79 -0.1 M1.26 34.22 C10.08 24.06, 18.91 13.91, 30.78 0.26 M1.26 34.22 C11.23 22.75, 21.2 11.28, 30.78 0.26 M3.62 37.6 C13.69 26.02, 23.76 14.43, 36.42 -0.14 M3.62 37.6 C12.35 27.55, 21.09 17.5, 36.42 -0.14 M7.29 39.47 C20.49 24.29, 33.68 9.11, 41.41 0.22 M7.29 39.47 C20.12 24.71, 32.95 9.95, 41.41 0.22 M11.63 40.58 C24.13 26.19, 36.64 11.81, 47.05 -0.17 M11.63 40.58 C20.29 30.61, 28.96 20.64, 47.05 -0.17 M17.27 40.19 C28.55 27.21, 39.84 14.22, 52.04 0.19 M17.27 40.19 C29.66 25.94, 42.05 11.68, 52.04 0.19 M22.26 40.55 C33.85 27.22, 45.43 13.88, 57.68 -0.21 M22.26 40.55 C31.09 30.39, 39.92 20.23, 57.68 -0.21 M27.9 40.15 C41.7 24.28, 55.5 8.4, 62.67 0.15 M27.9 40.15 C40.5 25.66, 53.1 11.17, 62.67 0.15 M32.89 40.51 C46.46 24.9, 60.04 9.28, 68.31 -0.24 M32.89 40.51 C46.42 24.94, 59.95 9.38, 68.31 -0.24 M38.53 40.12 C47.3 30.03, 56.06 19.95, 73.3 0.12 M38.53 40.12 C48.58 28.55, 58.63 16.99, 73.3 0.12 M43.52 40.48 C53.76 28.69, 64.01 16.91, 78.94 -0.28 M43.52 40.48 C54.35 28.02, 65.18 15.56, 78.94 -0.28 M49.16 40.08 C56.21 31.97, 63.26 23.86, 83.93 0.08 M49.16 40.08 C61.06 26.39, 72.97 12.69, 83.93 0.08 M54.15 40.44 C65.52 27.35, 76.9 14.27, 88.92 0.44 M54.15 40.44 C66.12 26.67, 78.09 12.9, 88.92 0.44 M59.79 40.05 C71.11 27.02, 82.43 14, 94.56 0.05 M59.79 40.05 C71.58 26.49, 83.36 12.93, 94.56 0.05 M64.78 40.41 C78.45 24.67, 92.13 8.94, 99.55 0.41 M64.78 40.41 C78.08 25.11, 91.38 9.81, 99.55 0.41 M69.76 40.77 C82.56 26.05, 95.35 11.34, 105.19 0.01 M69.76 40.77 C77.08 32.35, 84.4 23.93, 105.19 0.01 M75.41 40.37 C85.76 28.46, 96.12 16.55, 110.18 0.37 M75.41 40.37 C88.13 25.74, 100.85 11.11, 110.18 0.37 M80.39 40.73 C87.97 32.01, 95.56 23.29, 115.82 -0.02 M80.39 40.73 C90.45 29.16, 100.51 17.59, 115.82 -0.02 M86.04 40.34 C95.24 29.75, 104.45 19.16, 120.81 0.34 M86.04 40.34 C93.03 32.3, 100.02 24.25, 120.81 0.34 M91.02 40.7 C99.99 30.39, 108.96 20.07, 126.45 -0.05 M91.02 40.7 C98.84 31.71, 106.65 22.72, 126.45 -0.05 M96.67 40.31 C104.3 31.53, 111.93 22.75, 129.47 2.57 M96.67 40.31 C105.06 30.66, 113.44 21.01, 129.47 2.57 M101.65 40.67 C108.58 32.7, 115.51 24.72, 134.46 2.93 M101.65 40.67 C110.74 30.22, 119.82 19.77, 134.46 2.93 M107.3 40.27 C117.74 28.26, 128.18 16.25, 136.82 6.31 M107.3 40.27 C114.92 31.5, 122.55 22.73, 136.82 6.31 M112.28 40.63 C119.77 32.02, 127.26 23.41, 138.53 10.44 M112.28 40.63 C118.18 33.85, 124.07 27.07, 138.53 10.44 M117.93 40.24 C123.91 33.35, 129.9 26.46, 138.26 16.84 M117.93 40.24 C126.02 30.92, 134.12 21.61, 138.26 16.84 M122.91 40.6 C126.48 36.5, 130.04 32.4, 138 23.24 M122.91 40.6 C126.62 36.33, 130.33 32.06, 138 23.24 M128.56 40.2 C131.64 36.66, 134.72 33.12, 137.74 29.64 M128.56 40.2 C130.63 37.82, 132.7 35.43, 137.74 29.64" stroke="#fae6e6" stroke-width="0.5" fill="none"></path><path d="M9.63 0 M9.63 0 C43.63 0, 77.62 0, 127.23 0 M9.63 0 C37.15 0, 64.67 0, 127.23 0 M127.23 0 C133.65 0, 136.86 3.21, 136.86 9.63 M127.23 0 C133.65 0, 136.86 3.21, 136.86 9.63 M136.86 9.63 C136.86 14.07, 136.86 18.51, 136.86 28.9 M136.86 9.63 C136.86 16.17, 136.86 22.71, 136.86 28.9 M136.86 28.9 C136.86 35.33, 133.65 38.54, 127.23 38.54 M136.86 28.9 C136.86 35.33, 133.65 38.54, 127.23 38.54 M127.23 38.54 C103.16 38.54, 79.1 38.54, 9.63 38.54 M127.23 38.54 C88.85 38.54, 50.47 38.54, 9.63 38.54 M9.63 38.54 C3.21 38.54, 0 35.33, 0 28.9 M9.63 38.54 C3.21 38.54, 0 35.33, 0 28.9 M0 28.9 C0 23.21, 0 17.52, 0 9.63 M0 28.9 C0 22.68, 0 16.46, 0 9.63 M0 9.63 C0 3.21, 3.21 0, 9.63 0 M0 9.63 C0 3.21, 3.21 0, 9.63 0" stroke="#c92a2a" stroke-width="1" fill="none"></path></g><g transform="translate(437.13264110051875 139.53053227276524) rotate(0 61.49999999999994 14)"><text x="0" y="11" font-family="Cascadia, Segoe UI Emoji" font-size="11.592026702065304px" fill="#c92a2a" text-anchor="start" style="white-space: pre;" direction="ltr">Adapt all</text><text x="0" y="25" font-family="Cascadia, Segoe UI Emoji" font-size="11.592026702065304px" fill="#c92a2a" text-anchor="start" style="white-space: pre;" direction="ltr">modules/components</text></g><g stroke-linecap="round"><g transform="translate(333.2509935111525 153.0825715128163) rotate(0 48.3123779296875 0.5758817540774821)"><path d="M0 0 C29.95 0.36, 59.9 0.71, 96.62 1.15 M0 0 C24.24 0.29, 48.49 0.58, 96.62 1.15" stroke="#343a40" stroke-width="1" fill="none"></path></g><g transform="translate(333.2509935111525 153.0825715128163) rotate(0 48.3123779296875 0.5758817540774821)"><path d="M96.62 1.15 L82.96 7.33 L83.11 -5.35 L96.62 1.15" stroke="none" stroke-width="0" fill="#343a40" fill-rule="evenodd"></path><path d="M96.62 1.15 C92.39 3.07, 88.15 4.98, 82.96 7.33 M96.62 1.15 C93.19 2.7, 89.77 4.25, 82.96 7.33 M82.96 7.33 C83.01 3.08, 83.06 -1.17, 83.11 -5.35 M82.96 7.33 C82.99 4.02, 83.03 0.72, 83.11 -5.35 M83.11 -5.35 C86 -3.96, 88.89 -2.57, 96.62 1.15 M83.11 -5.35 C86.1 -3.91, 89.1 -2.47, 96.62 1.15 M96.62 1.15 C96.62 1.15, 96.62 1.15, 96.62 1.15 M96.62 1.15 C96.62 1.15, 96.62 1.15, 96.62 1.15" stroke="#343a40" stroke-width="1" fill="none"></path></g></g><g transform="translate(339.96971978081604 115.92298719618054) rotate(0 33.5 36)"><text x="0" y="10" font-family="Cascadia, Segoe UI Emoji" font-size="10.338297526041641px" fill="#343a40" text-anchor="start" style="white-space: pre;" direction="ltr">replace</text><text x="0" y="22" font-family="Cascadia, Segoe UI Emoji" font-size="10.338297526041641px" fill="#343a40" text-anchor="start" style="white-space: pre;" direction="ltr">with </text><text x="0" y="34" font-family="Cascadia, Segoe UI Emoji" font-size="10.338297526041641px" fill="#343a40" text-anchor="start" style="white-space: pre;" direction="ltr"></text><text x="0" y="46" font-family="Cascadia, Segoe UI Emoji" font-size="10.338297526041641px" fill="#343a40" text-anchor="start" style="white-space: pre;" direction="ltr"></text><text x="0" y="58" font-family="Cascadia, Segoe UI Emoji" font-size="10.338297526041641px" fill="#343a40" text-anchor="start" style="white-space: pre;" direction="ltr">composition</text><text x="0" y="70" font-family="Cascadia, Segoe UI Emoji" font-size="10.338297526041641px" fill="#343a40" text-anchor="start" style="white-space: pre;" direction="ltr">API</text></g><g stroke-linecap="round" transform="translate(623.500377117007 142.97819887612766) rotate(0 24.60939554702759 11.754787015815424)"><path d="M1.56 1.36 C1.56 1.36, 1.56 1.36, 1.56 1.36 M1.56 1.36 C1.56 1.36, 1.56 1.36, 1.56 1.36 M1.96 7 C3.15 5.63, 4.34 4.26, 7.21 0.97 M1.96 7 C3.79 4.9, 5.62 2.79, 7.21 0.97 M1.7 13.4 C5.67 8.83, 9.65 4.25, 12.19 1.33 M1.7 13.4 C4.39 10.3, 7.09 7.2, 12.19 1.33 M0.78 20.55 C7.36 12.98, 13.95 5.41, 17.84 0.93 M0.78 20.55 C7.43 12.9, 14.09 5.25, 17.84 0.93 M3.8 23.18 C9.45 16.67, 15.11 10.17, 22.82 1.29 M3.8 23.18 C8.35 17.95, 12.89 12.72, 22.82 1.29 M8.79 23.54 C14.86 16.56, 20.93 9.57, 28.47 0.9 M8.79 23.54 C14.89 16.52, 20.99 9.5, 28.47 0.9 M14.43 23.14 C18.42 18.56, 22.4 13.97, 33.45 1.26 M14.43 23.14 C20.7 15.93, 26.97 8.72, 33.45 1.26 M19.42 23.5 C25.74 16.23, 32.06 8.95, 38.44 1.62 M19.42 23.5 C26 15.93, 32.59 8.35, 38.44 1.62 M24.4 23.86 C32.21 14.89, 40.01 5.91, 44.08 1.22 M24.4 23.86 C31 16.28, 37.6 8.69, 44.08 1.22 M30.05 23.47 C34.76 18.04, 39.48 12.62, 48.42 2.34 M30.05 23.47 C35.56 17.13, 41.07 10.78, 48.42 2.34 M35.03 23.83 C40.77 17.23, 46.51 10.63, 51.43 4.96 M35.03 23.83 C39.58 18.6, 44.12 13.37, 51.43 4.96 M40.68 23.43 C43.21 20.52, 45.74 17.61, 51.17 11.36 M40.68 23.43 C43.17 20.57, 45.66 17.7, 51.17 11.36 M46.32 23.04 C47.57 21.6, 48.82 20.16, 50.91 17.76 M46.32 23.04 C47.65 21.5, 48.99 19.97, 50.91 17.76" stroke="#fae6e6" stroke-width="0.5" fill="none"></path><path d="M5.88 0 M5.88 0 C17.36 0, 28.83 0, 43.34 0 M5.88 0 C20.41 0, 34.94 0, 43.34 0 M43.34 0 C47.26 0, 49.22 1.96, 49.22 5.88 M43.34 0 C47.26 0, 49.22 1.96, 49.22 5.88 M49.22 5.88 C49.22 9.64, 49.22 13.41, 49.22 17.63 M49.22 5.88 C49.22 9.34, 49.22 12.8, 49.22 17.63 M49.22 17.63 C49.22 21.55, 47.26 23.51, 43.34 23.51 M49.22 17.63 C49.22 21.55, 47.26 23.51, 43.34 23.51 M43.34 23.51 C30.76 23.51, 18.17 23.51, 5.88 23.51 M43.34 23.51 C35.63 23.51, 27.91 23.51, 5.88 23.51 M5.88 23.51 C1.96 23.51, 0 21.55, 0 17.63 M5.88 23.51 C1.96 23.51, 0 21.55, 0 17.63 M0 17.63 C0 15.1, 0 12.57, 0 5.88 M0 17.63 C0 14.48, 0 11.33, 0 5.88 M0 5.88 C0 1.96, 1.96 0, 5.88 0 M0 5.88 C0 1.96, 1.96 0, 5.88 0" stroke="#c92a2a" stroke-width="1" fill="none"></path></g><g transform="translate(632.5212315953106 147.0302610054041) rotate(0 14 7)"><text x="0" y="11" font-family="Cascadia, Segoe UI Emoji" font-size="11.592026702065304px" fill="#c92a2a" text-anchor="start" style="white-space: pre;" direction="ltr">Test</text></g><g stroke-linecap="round"><g transform="translate(566.7430860675765 153.6570967030784) rotate(0 27.776319715711793 0.3344759472530967)"><path d="M0 0 C17.01 0.2, 34.02 0.41, 55.55 0.67 M0 0 C21.5 0.26, 43.01 0.52, 55.55 0.67" stroke="#343a40" stroke-width="1" fill="none"></path></g><g transform="translate(566.7430860675765 153.6570967030784) rotate(0 27.776319715711793 0.3344759472530967)"><path d="M55.55 0.67 L41.88 6.84 L42.04 -5.83 L55.55 0.67" stroke="none" stroke-width="0" fill="#343a40" fill-rule="evenodd"></path><path d="M55.55 0.67 C51.37 2.56, 47.18 4.45, 41.88 6.84 M55.55 0.67 C50.26 3.06, 44.97 5.45, 41.88 6.84 M41.88 6.84 C41.94 2.24, 41.99 -2.37, 42.04 -5.83 M41.88 6.84 C41.94 1.95, 42 -2.95, 42.04 -5.83 M42.04 -5.83 C46.65 -3.61, 51.27 -1.39, 55.55 0.67 M42.04 -5.83 C45.78 -4.03, 49.52 -2.23, 55.55 0.67 M55.55 0.67 C55.55 0.67, 55.55 0.67, 55.55 0.67 M55.55 0.67 C55.55 0.67, 55.55 0.67, 55.55 0.67" stroke="#343a40" stroke-width="1" fill="none"></path></g></g><g stroke-linecap="round"><g transform="translate(647.7384338323334 167.13622649457068) rotate(0 -79.81146918402783 22.961697048611114)"><path d="M0 0 C0.02 13.51, 0.04 27.03, 0.06 45.92 M0 0 C0.02 18.22, 0.05 36.45, 0.06 45.92 M0.06 45.92 C-32.83 45.9, -65.72 45.88, -159.68 45.82 M0.06 45.92 C-43.16 45.9, -86.37 45.87, -159.68 45.82 M-159.68 45.82 C-159.65 36.28, -159.62 26.75, -159.56 10.22 M-159.68 45.82 C-159.66 38.43, -159.63 31.04, -159.56 10.22" stroke="#343a40" stroke-width="1" fill="none"></path></g><g transform="translate(647.7384338323334 167.13622649457068) rotate(0 -79.81146918402783 22.961697048611114)"><path d="M-159.56 10.22 L-153.27 23.84 L-165.94 23.8 L-159.56 10.22" stroke="none" stroke-width="0" fill="#343a40" fill-rule="evenodd"></path><path d="M-159.56 10.22 C-157.71 14.23, -155.85 18.24, -153.27 23.84 M-159.56 10.22 C-157.06 15.63, -154.56 21.03, -153.27 23.84 M-153.27 23.84 C-155.88 23.83, -158.49 23.82, -165.94 23.8 M-153.27 23.84 C-156.7 23.83, -160.13 23.82, -165.94 23.8 M-165.94 23.8 C-164.23 20.16, -162.52 16.52, -159.56 10.22 M-165.94 23.8 C-164.62 20.98, -163.29 18.16, -159.56 10.22 M-159.56 10.22 C-159.56 10.22, -159.56 10.22, -159.56 10.22 M-159.56 10.22 C-159.56 10.22, -159.56 10.22, -159.56 10.22" stroke="#343a40" stroke-width="1" fill="none"></path></g></g><g stroke-linecap="round"><g transform="translate(678.4524192148979 154.853036993257) rotate(0 27.776319715711793 0.3344759472530967)"><path d="M0 0 C20.31 0.24, 40.61 0.49, 55.55 0.67 M0 0 C17.34 0.21, 34.68 0.42, 55.55 0.67" stroke="#343a40" stroke-width="1" fill="none"></path></g><g transform="translate(678.4524192148979 154.853036993257) rotate(0 27.776319715711793 0.3344759472530967)"><path d="M55.55 0.67 L41.88 6.84 L42.04 -5.83 L55.55 0.67" stroke="none" stroke-width="0" fill="#343a40" fill-rule="evenodd"></path><path d="M55.55 0.67 C50.56 2.93, 45.56 5.18, 41.88 6.84 M55.55 0.67 C51.29 2.6, 47.02 4.52, 41.88 6.84 M41.88 6.84 C41.92 3.49, 41.96 0.14, 42.04 -5.83 M41.88 6.84 C41.93 3.12, 41.97 -0.6, 42.04 -5.83 M42.04 -5.83 C46.65 -3.61, 51.27 -1.39, 55.55 0.67 M42.04 -5.83 C45.5 -4.16, 48.97 -2.5, 55.55 0.67 M55.55 0.67 C55.55 0.67, 55.55 0.67, 55.55 0.67 M55.55 0.67 C55.55 0.67, 55.55 0.67, 55.55 0.67" stroke="#343a40" stroke-width="1" fill="none"></path></g></g><g transform="translate(742.183189401147 132.4721321881202) rotate(0 18.5 23.5)"><text x="18.5" y="36" font-family="Cascadia, Segoe UI Emoji" font-size="36px" fill="#ced4da" text-anchor="middle" style="white-space: pre;" direction="ltr">🥳</text></g></svg>