{
    "asset" : {
        "generator" : "Khronos glTF Blender I/O v1.8.19",
        "version" : "2.0"
    },
    "scene" : 0,
    "scenes" : [
        {
            "name" : "Scene",
            "nodes" : [
                2
            ]
        }
    ],
    "nodes" : [
        {
            "mesh" : 0,
            "name" : "Vue",
            "scale" : [
                1.777482271194458,
                1.777482271194458,
                1.777482271194458
            ],
            "translation" : [
                0.002488442463800311,
                0.8234201669692993,
                0.29355454444885254
            ]
        },
        {
            "mesh" : 1,
            "name" : "Vue.001",
            "scale" : [
                1.777482271194458,
                1.777482271194458,
                1.777482271194458
            ],
            "translation" : [
                0.002488442463800311,
                0.8234201669692993,
                0.29355454444885254
            ]
        },
        {
            "children" : [
                0,
                1
            ],
            "name" : "Empty.013",
            "scale" : [
                2.3226566314697266,
                2.3226566314697266,
                2.3226566314697266
            ],
            "translation" : [
                0,
                3.6469883918762207,
                0
            ]
        }
    ],
    "materials" : [
        {
            "doubleSided" : true,
            "name" : "Vue Green 01",
            "pbrMetallicRoughness" : {
                "baseColorFactor" : [
                    0.02810918726027012,
                    0.22341400384902954,
                    0.10696297883987427,
                    1
                ],
                "metallicFactor" : 0,
                "roughnessFactor" : 0.44999998807907104
            }
        },
        {
            "doubleSided" : true,
            "name" : "Vue Green 02",
            "pbrMetallicRoughness" : {
                "baseColorFactor" : [
                    0.01562402956187725,
                    0.02427019737660885,
                    0.0363064743578434,
                    1
                ],
                "metallicFactor" : 0,
                "roughnessFactor" : 0.44999998807907104
            }
        }
    ],
    "meshes" : [
        {
            "name" : "Plane.019",
            "primitives" : [
                {
                    "attributes" : {
                        "POSITION" : 0,
                        "NORMAL" : 1,
                        "TEXCOORD_0" : 2
                    },
                    "indices" : 3,
                    "material" : 0
                }
            ]
        },
        {
            "name" : "Plane.022",
            "primitives" : [
                {
                    "attributes" : {
                        "POSITION" : 4,
                        "NORMAL" : 5,
                        "TEXCOORD_0" : 6
                    },
                    "indices" : 7,
                    "material" : 1
                }
            ]
        }
    ],
    "accessors" : [
        {
            "bufferView" : 0,
            "componentType" : 5126,
            "count" : 92,
            "max" : [
                0.9802116751670837,
                0.342885285615921,
                0.010867834091186523
            ],
            "min" : [
                -0.9930236339569092,
                -1.360155701637268,
                -0.18033695220947266
            ],
            "type" : "VEC3"
        },
        {
            "bufferView" : 1,
            "componentType" : 5126,
            "count" : 92,
            "type" : "VEC3"
        },
        {
            "bufferView" : 2,
            "componentType" : 5126,
            "count" : 92,
            "type" : "VEC2"
        },
        {
            "bufferView" : 3,
            "componentType" : 5123,
            "count" : 540,
            "type" : "SCALAR"
        },
        {
            "bufferView" : 4,
            "componentType" : 5126,
            "count" : 92,
            "max" : [
                0.5906655788421631,
                0.3424592912197113,
                0.17299580574035645
            ],
            "min" : [
                -0.5963312387466431,
                -0.6885403990745544,
                0.0010690689086914062
            ],
            "type" : "VEC3"
        },
        {
            "bufferView" : 5,
            "componentType" : 5126,
            "count" : 92,
            "type" : "VEC3"
        },
        {
            "bufferView" : 6,
            "componentType" : 5126,
            "count" : 92,
            "type" : "VEC2"
        },
        {
            "bufferView" : 7,
            "componentType" : 5123,
            "count" : 540,
            "type" : "SCALAR"
        }
    ],
    "bufferViews" : [
        {
            "buffer" : 0,
            "byteLength" : 1104,
            "byteOffset" : 0
        },
        {
            "buffer" : 0,
            "byteLength" : 1104,
            "byteOffset" : 1104
        },
        {
            "buffer" : 0,
            "byteLength" : 736,
            "byteOffset" : 2208
        },
        {
            "buffer" : 0,
            "byteLength" : 1080,
            "byteOffset" : 2944
        },
        {
            "buffer" : 0,
            "byteLength" : 1104,
            "byteOffset" : 4024
        },
        {
            "buffer" : 0,
            "byteLength" : 1104,
            "byteOffset" : 5128
        },
        {
            "buffer" : 0,
            "byteLength" : 736,
            "byteOffset" : 6232
        },
        {
            "buffer" : 0,
            "byteLength" : 1080,
            "byteOffset" : 6968
        }
    ],
    "buffers" : [
        {
            "byteLength" : 8048,
            "uri" : "data:application/octet-stream;base64,"
        }
    ]
}
